<svg width="100" height="100" viewBox="0 0 100 100" fill="none" xmlns="http://www.w3.org/2000/svg">
<g clip-path="url(#clip0_2486_6195)">
<g clip-path="url(#clip1_2486_6195)">
<rect width="142" height="30" transform="translate(21.2134 -22) rotate(45)" fill="#FF5900"/>
<path d="M35.9833 10.8318L34.5746 9.42314C34.7654 9.15195 34.896 8.87323 34.9663 8.58697C35.0391 8.2982 35.058 8.01069 35.0228 7.72443C34.9877 7.43817 34.8985 7.1607 34.7554 6.89202C34.6173 6.62334 34.4302 6.37098 34.1942 6.13495C33.7748 5.71561 33.2977 5.44944 32.7629 5.33644C32.2305 5.22093 31.6706 5.27366 31.083 5.49463C30.4979 5.71309 29.9154 6.11235 29.3353 6.6924C28.7452 7.28249 28.3397 7.87133 28.1187 8.45891C27.9028 9.04649 27.8526 9.60394 27.9681 10.1313C28.0886 10.6586 28.3573 11.1306 28.7741 11.5475C29.0051 11.7785 29.2512 11.9643 29.5124 12.1049C29.7785 12.2455 30.0522 12.3359 30.3335 12.3761C30.6172 12.4188 30.9022 12.4075 31.1885 12.3422C31.4772 12.2794 31.756 12.1564 32.0246 11.9731L33.4258 13.3893C33.0065 13.7032 32.5482 13.933 32.051 14.0786C31.5563 14.2268 31.0453 14.2832 30.518 14.2481C29.9932 14.2104 29.4734 14.0723 28.9587 13.8338C28.4464 13.5927 27.9605 13.2424 27.501 12.7829C26.823 12.1049 26.3748 11.3428 26.1564 10.4966C25.9379 9.65039 25.9718 8.77781 26.2581 7.87886C26.5443 6.97991 27.1018 6.11612 27.9304 5.28747C28.7616 4.45632 29.6266 3.90013 30.5256 3.61889C31.427 3.33515 32.3009 3.3025 33.1471 3.52096C33.9933 3.73942 34.7529 4.18513 35.4258 4.85809C35.8552 5.28747 36.1942 5.74699 36.4428 6.23664C36.6914 6.7263 36.8433 7.23227 36.8986 7.75456C36.9563 8.27435 36.9099 8.79539 36.7592 9.31768C36.6136 9.83998 36.3549 10.3447 35.9833 10.8318Z" fill="white"/>
<path d="M34.5021 19.799C33.9371 19.2341 33.5718 18.6201 33.406 17.9572C33.2403 17.2943 33.2667 16.6251 33.4851 15.9496C33.7061 15.2767 34.1154 14.6414 34.713 14.0438C35.3106 13.4461 35.9472 13.0356 36.6227 12.8121C37.3006 12.5911 37.9711 12.5635 38.634 12.7292C39.2969 12.895 39.9109 13.2603 40.4758 13.8253C41.0408 14.3903 41.4062 15.0042 41.5719 15.6671C41.7376 16.3301 41.7088 16.9992 41.4853 17.6747C41.2643 18.3527 40.855 18.9905 40.2574 19.5881C39.6598 20.1857 39.0232 20.5938 38.3477 20.8122C37.6748 21.0332 37.0068 21.0608 36.3439 20.8951C35.681 20.7294 35.0671 20.364 34.5021 19.799ZM35.6019 18.7143C35.9083 19.0206 36.2485 19.1926 36.6227 19.2303C36.9993 19.2655 37.381 19.1901 37.7677 19.0043C38.1569 18.821 38.5273 18.5536 38.8788 18.202C39.2329 17.848 39.5016 17.4763 39.6849 17.0871C39.8732 16.6979 39.9498 16.315 39.9146 15.9383C39.8795 15.5617 39.7087 15.2202 39.4024 14.9138C39.0885 14.6 38.742 14.4242 38.3628 14.3865C37.9862 14.3514 37.602 14.4267 37.2102 14.6125C36.8235 14.7983 36.4532 15.0683 36.0991 15.4223C35.7476 15.7739 35.4789 16.143 35.2931 16.5297C35.1098 16.9189 35.0357 17.3018 35.0708 17.6785C35.111 18.0551 35.288 18.4004 35.6019 18.7143Z" fill="white"/>
<path d="M38.5445 23.6155L44.33 17.8301L45.6332 19.1333L44.6501 20.1164L44.7179 20.1842C45.1699 19.9732 45.6282 19.9142 46.0927 20.0071C46.5598 20.0975 46.9866 20.3361 47.3733 20.7228C47.7651 21.1145 47.9998 21.5401 48.0777 21.9997C48.1605 22.4592 48.094 22.9074 47.878 23.3443L47.9383 23.4046C48.3878 23.2112 48.8599 23.171 49.3545 23.284C49.8542 23.397 50.3137 23.6632 50.7331 24.0826C51.2654 24.6149 51.5316 25.2175 51.5316 25.8905C51.5316 26.5635 51.2089 27.2226 50.5636 27.8679L46.6803 31.7512L45.313 30.384L48.9854 26.7116C49.3445 26.3525 49.5115 25.9947 49.4864 25.6381C49.4638 25.2791 49.3144 24.9614 49.0381 24.6852C48.7092 24.3563 48.3489 24.2018 47.9571 24.2219C47.5704 24.242 47.2139 24.4153 46.8874 24.7417L43.2791 28.3501L41.942 27.0129L45.6709 23.284C45.9697 22.9852 46.1178 22.6563 46.1153 22.2972C46.1153 21.9406 45.9709 21.618 45.6822 21.3292C45.4863 21.1333 45.2578 21.0053 44.9966 20.945C44.738 20.8822 44.4706 20.8935 44.1944 20.9789C43.9207 21.0618 43.6645 21.2225 43.426 21.461L39.908 24.979L38.5445 23.6155Z" fill="white"/>
<path d="M48.0635 33.1345L53.849 27.3491L55.2125 28.7126L49.427 34.498L48.0635 33.1345ZM55.3556 27.2135C55.1396 26.9975 55.0254 26.7402 55.0128 26.4414C55.0028 26.14 55.0995 25.8877 55.3029 25.6843C55.5088 25.4784 55.7611 25.3817 56.0599 25.3943C56.3613 25.4043 56.6199 25.5173 56.8358 25.7332C57.0543 25.9517 57.1673 26.2103 57.1748 26.5092C57.1874 26.808 57.0907 27.0603 56.8848 27.2662C56.6814 27.4696 56.4291 27.5663 56.1277 27.5563C55.8314 27.5462 55.574 27.432 55.3556 27.2135Z" fill="white"/>
<path d="M55.5825 33.8737L52.1926 37.2636L50.8291 35.9001L56.6146 30.1147L57.9178 31.4179L56.9347 32.401L57.0025 32.4688C57.4595 32.2779 57.9291 32.2327 58.4112 32.3332C58.8958 32.4361 59.3541 32.7036 59.786 33.1355C60.1852 33.5347 60.4476 33.9679 60.5732 34.4349C60.7013 34.9045 60.6849 35.3828 60.5242 35.87C60.366 36.3596 60.0547 36.8342 59.5901 37.2937L55.9064 40.9774L54.543 39.6139L58.0157 36.1412C58.4024 35.7545 58.6046 35.3514 58.6221 34.9321C58.6422 34.5153 58.4765 34.1311 58.1249 33.7795C57.8864 33.541 57.6215 33.3815 57.3302 33.3012C57.0439 33.2208 56.7502 33.2258 56.4488 33.3162C56.15 33.4092 55.8612 33.595 55.5825 33.8737Z" fill="white"/>
<path d="M57.5185 47.1696C57.0289 46.68 56.6748 46.1928 56.4564 45.7082C56.2354 45.2261 56.1287 44.7678 56.1362 44.3334C56.1437 43.899 56.2404 43.506 56.4262 43.1545L57.9517 44.0848C57.8939 44.253 57.8625 44.4451 57.8575 44.6611C57.85 44.8796 57.899 45.1143 58.0044 45.3654C58.1099 45.6216 58.2995 45.8865 58.5732 46.1602C58.9599 46.5469 59.3742 46.7729 59.8161 46.8382C60.2556 46.906 60.6887 46.7264 61.1156 46.2995L62.2116 45.2035L62.1439 45.1357C61.9329 45.206 61.6856 45.2474 61.4018 45.26C61.1206 45.275 60.8193 45.2223 60.4979 45.1018C60.179 44.9838 59.8538 44.759 59.5223 44.4276C59.0779 43.9831 58.7791 43.4759 58.6259 42.9059C58.4777 42.3359 58.5054 41.7357 58.7088 41.1055C58.9172 40.4752 59.3365 39.8449 59.9668 39.2147C60.6021 38.5794 61.2436 38.1487 61.8915 37.9227C62.5444 37.6967 63.1646 37.6515 63.7522 37.7871C64.3423 37.9202 64.8595 38.209 65.304 38.6534C65.643 38.9924 65.8639 39.3289 65.9669 39.6629C66.0749 39.9969 66.1138 40.3095 66.0837 40.6008C66.056 40.8895 66.0058 41.1381 65.933 41.3465L66.0083 41.4219L66.965 40.4652L68.3097 41.8098L62.4301 47.6894C61.9354 48.1841 61.4081 48.4753 60.8482 48.5632C60.2882 48.6511 59.7232 48.5708 59.1532 48.3222C58.5832 48.0736 58.0383 47.6894 57.5185 47.1696ZM60.9725 43.7383C61.2612 44.0271 61.5776 44.2028 61.9216 44.2656C62.2656 44.3284 62.6222 44.2807 62.9913 44.1225C63.3604 43.9643 63.7296 43.7006 64.0987 43.3315C64.4628 42.9674 64.729 42.5958 64.8972 42.2166C65.0679 41.8399 65.127 41.4746 65.0742 41.1205C65.0265 40.7665 64.8558 40.4426 64.562 40.1488C64.2581 39.8449 63.9254 39.6704 63.5638 39.6252C63.2023 39.58 62.8319 39.644 62.4527 39.8173C62.0761 39.9881 61.7132 40.248 61.3642 40.597C61.0101 40.951 60.7515 41.3126 60.5883 41.6817C60.4301 42.0509 60.3786 42.4112 60.4338 42.7628C60.4941 43.1143 60.6736 43.4395 60.9725 43.7383Z" fill="white"/>
<path d="M75.3814 51.9399L74.0028 50.8326C74.0932 50.6719 74.1497 50.4923 74.1723 50.294C74.1974 50.0981 74.1711 49.8935 74.0932 49.68C74.0154 49.4666 73.871 49.2544 73.6601 49.0435C73.3763 48.7597 73.0763 48.5827 72.7599 48.5124C72.446 48.4446 72.1924 48.5099 71.999 48.7082C71.8283 48.874 71.7529 49.0723 71.773 49.3034C71.7956 49.5369 71.9199 49.8344 72.1459 50.196L72.9218 51.3938C73.3512 52.0592 73.5709 52.6531 73.581 53.1754C73.5935 53.7002 73.3939 54.171 72.9821 54.5878C72.6155 54.9494 72.1874 55.1641 71.6977 55.2319C71.2131 55.2997 70.7071 55.2256 70.1798 55.0097C69.6525 54.7937 69.1477 54.4447 68.6656 53.9626C67.9575 53.2545 67.5357 52.5363 67.4001 51.8081C67.267 51.0774 67.4252 50.4045 67.8747 49.7892L69.3323 50.9908C69.1314 51.3122 69.0624 51.6374 69.1252 51.9663C69.1879 52.2953 69.3762 52.6167 69.6901 52.9305C70.0141 53.2545 70.3405 53.4478 70.6694 53.5106C71.0009 53.5759 71.2645 53.5106 71.4604 53.3147C71.6261 53.149 71.699 52.9481 71.6789 52.7121C71.6613 52.4786 71.5483 52.1998 71.3399 51.8759L70.5602 50.6819C70.1208 50.0115 69.9048 49.4063 69.9124 48.8664C69.9224 48.3241 70.1396 47.8432 70.564 47.4239C70.918 47.0648 71.3236 46.8526 71.7806 46.7873C72.2426 46.722 72.7209 46.7936 73.2156 47.002C73.7153 47.2104 74.1962 47.5456 74.6582 48.0077C75.3362 48.6856 75.7254 49.3636 75.8258 50.0416C75.9288 50.7221 75.7806 51.3549 75.3814 51.9399Z" fill="white"/>
<path d="M74.7844 60.0813C74.2194 59.5164 73.8541 58.9024 73.6883 58.2395C73.5226 57.5766 73.549 56.9074 73.7674 56.2319C73.9884 55.559 74.3977 54.9237 74.9953 54.3261C75.5929 53.7284 76.2295 53.3179 76.905 53.0944C77.5829 52.8734 78.2534 52.8458 78.9163 53.0115C79.5792 53.1773 80.1932 53.5426 80.7581 54.1076C81.3231 54.6726 81.6885 55.2865 81.8542 55.9494C82.0199 56.6124 81.9911 57.2815 81.7676 57.957C81.5466 58.635 81.1373 59.2728 80.5397 59.8704C79.942 60.468 79.3055 60.8761 78.63 61.0945C77.9571 61.3155 77.2891 61.3431 76.6262 61.1774C75.9633 61.0117 75.3494 60.6463 74.7844 60.0813ZM75.8842 58.9966C76.1906 59.3029 76.5308 59.4749 76.905 59.5126C77.2816 59.5477 77.6633 59.4724 78.05 59.2866C78.4392 59.1033 78.8096 58.8359 79.1611 58.4843C79.5152 58.1303 79.7839 57.7586 79.9672 57.3694C80.1555 56.9802 80.2321 56.5973 80.1969 56.2206C80.1618 55.844 79.991 55.5025 79.6847 55.1961C79.3708 54.8822 79.0243 54.7065 78.6451 54.6688C78.2684 54.6337 77.8843 54.709 77.4925 54.8948C77.1058 55.0806 76.7355 55.3506 76.3814 55.7046C76.0299 56.0562 75.7612 56.4253 75.5754 56.812C75.3921 57.2012 75.318 57.5841 75.3531 57.9608C75.3933 58.3374 75.5703 58.6827 75.8842 58.9966Z" fill="white"/>
<path d="M81.2374 66.5344C80.6724 65.9694 80.3071 65.3555 80.1414 64.6925C79.9756 64.0296 80.002 63.3604 80.2205 62.685C80.4414 62.012 80.8507 61.3767 81.4484 60.7791C82.046 60.1815 82.6825 59.7709 83.358 59.5474C84.036 59.3265 84.7064 59.2988 85.3693 59.4646C86.0322 59.6303 86.6462 59.9957 87.2112 60.5606C87.7762 61.1256 88.1415 61.7396 88.3072 62.4025C88.473 63.0654 88.4441 63.7346 88.2206 64.41C87.9996 65.088 87.5903 65.7258 86.9927 66.3235C86.3951 66.9211 85.7585 67.3291 85.0831 67.5476C84.4101 67.7686 83.7422 67.7962 83.0793 67.6304C82.4164 67.4647 81.8024 67.0994 81.2374 66.5344ZM82.3373 65.4496C82.6436 65.756 82.9838 65.928 83.358 65.9656C83.7347 66.0008 84.1163 65.9255 84.503 65.7396C84.8922 65.5563 85.2626 65.2889 85.6142 64.9374C85.9682 64.5833 86.2369 64.2117 86.4202 63.8225C86.6085 63.4333 86.6851 63.0503 86.65 62.6737C86.6148 62.297 86.4441 61.9555 86.1377 61.6492C85.8238 61.3353 85.4773 61.1595 85.0981 61.1218C84.7215 61.0867 84.3373 61.162 83.9456 61.3478C83.5589 61.5337 83.1885 61.8036 82.8344 62.1577C82.4829 62.5092 82.2142 62.8783 82.0284 63.265C81.8451 63.6542 81.771 64.0372 81.8062 64.4138C81.8464 64.7905 82.0234 65.1357 82.3373 65.4496Z" fill="white"/>
<path d="M90.0333 68.3244L86.6434 71.7143L85.2799 70.3508L91.0653 64.5654L92.3685 65.8686L91.3854 66.8517L91.4533 66.9195C91.9103 66.7287 92.3798 66.6835 92.8619 66.7839C93.3466 66.8869 93.8048 67.1543 94.2367 67.5862C94.636 67.9854 94.8984 68.4186 95.0239 68.8856C95.152 69.3552 95.1357 69.8336 94.975 70.3207C94.8168 70.8104 94.5054 71.2849 94.0409 71.7445L90.3572 75.4281L88.9937 74.0647L92.4664 70.5919C92.8531 70.2052 93.0553 69.8022 93.0729 69.3828C93.093 68.966 92.9272 68.5818 92.5757 68.2303C92.3371 67.9917 92.0722 67.8323 91.7809 67.7519C91.4947 67.6716 91.2009 67.6766 90.8996 67.767C90.6007 67.8599 90.312 68.0457 90.0333 68.3244Z" fill="white"/>
</g>
</g>
<defs>
<clipPath id="clip0_2486_6195">
<rect width="100" height="100" fill="white"/>
</clipPath>
<clipPath id="clip1_2486_6195">
<rect width="142" height="30" fill="white" transform="translate(21.2134 -22) rotate(45)"/>
</clipPath>
</defs>
</svg>
