<svg width="41" height="23" viewBox="0 0 41 23" fill="none" xmlns="http://www.w3.org/2000/svg">
<path d="M6.84004 5.84228V16.8473H12.4564V14.9994H9.01305V5.84228H6.84004Z" fill="black"/>
<path d="M17.6674 12.805H20.5425C20.1079 14.4879 18.6202 15.1479 17.0824 15.1479C14.4581 15.1479 13.6892 13.0855 13.9065 11.386C14.1572 9.27413 15.8287 7.5417 18.0352 7.5417C19.8739 7.5417 20.5592 8.77915 20.7431 9.19163L22.7656 8.18517C22.4815 7.5747 21.4786 5.59479 18.3026 5.59479C14.8592 5.59479 12.0845 7.93769 11.6666 11.353C11.232 14.7849 13.3549 17.0948 16.7982 17.0948C17.985 17.0948 19.9407 16.8308 21.4953 14.9499C22.4648 13.7784 22.8158 12.4915 22.9829 11.2375L23.0164 10.9571H17.9015L17.6674 12.805Z" fill="black"/>
<path d="M24.9804 16.8473V9.40612L31.7669 17.0618H33.2713V5.84228H31.0983V13.2505L24.3118 5.59479H22.8074V16.8473H24.9804Z" fill="black"/>
<path d="M39.9238 11.5C39.9238 8.58232 37.8408 5.84189 34.2568 3.80273C30.6874 1.77191 25.7227 0.5 20.2119 0.5C14.7011 0.500032 9.73637 1.77188 6.16699 3.80273C2.58311 5.84188 0.5 8.58236 0.5 11.5C0.5 14.4176 2.58311 17.1581 6.16699 19.1973C9.73637 21.2281 14.7011 22.5 20.2119 22.5V23C9.04916 22.9999 0 17.8512 0 11.5C0 5.14876 9.04916 6.39316e-05 20.2119 0C31.3748 0 40.4238 5.14873 40.4238 11.5C40.4238 17.8513 31.3748 23 20.2119 23V22.5C25.7227 22.5 30.6874 21.2281 34.2568 19.1973C37.8408 17.1581 39.9238 14.4177 39.9238 11.5Z" fill="black"/>
</svg>
