<svg width="41" height="23" viewBox="0 0 41 23" fill="none" xmlns="http://www.w3.org/2000/svg">
<path d="M31.0979 13.2501V5.84186H33.2717V17.0616H31.7668L24.9807 9.40631V16.8477H22.8078V12.2149C22.5918 13.1496 22.2139 14.082 21.4953 14.9503C19.9408 16.831 17.9848 17.0948 16.798 17.0948C14.8573 17.0947 13.3365 16.3605 12.4563 15.1055V16.8477H6.84004V5.84186H9.01289V14.9991H12.3859C11.7555 14.0409 11.4834 12.7965 11.6662 11.3526C12.0843 7.93746 14.8597 5.59479 18.3029 5.59479C21.4786 5.59492 22.4817 7.57515 22.7658 8.18561L20.7434 9.19147C20.5595 8.77897 19.8739 7.54213 18.0354 7.54205C15.829 7.54205 14.1573 9.274 13.9064 11.3858C13.6892 13.0852 14.458 15.1474 17.0822 15.1475C18.62 15.1475 20.1076 14.4877 20.5422 12.8047H17.6672L17.9016 10.9571H22.8078V5.59479H24.3117L31.0979 13.2501Z" fill="black"/>
<path d="M31.0979 13.2501V5.84186H33.2717V17.0616H31.7668L24.9807 9.40631V16.8477H22.8078V12.2149C22.5918 13.1496 22.2139 14.082 21.4953 14.9503C19.9408 16.831 17.9848 17.0948 16.798 17.0948C14.8573 17.0947 13.3365 16.3605 12.4563 15.1055V16.8477H6.84004V5.84186H9.01289V14.9991H12.3859C11.7555 14.0409 11.4834 12.7965 11.6662 11.3526C12.0843 7.93746 14.8597 5.59479 18.3029 5.59479C21.4786 5.59492 22.4817 7.57515 22.7658 8.18561L20.7434 9.19147C20.5595 8.77897 19.8739 7.54213 18.0354 7.54205C15.829 7.54205 14.1573 9.274 13.9064 11.3858C13.6892 13.0852 14.458 15.1474 17.0822 15.1475C18.62 15.1475 20.1076 14.4877 20.5422 12.8047H17.6672L17.9016 10.9571H22.8078V5.59479H24.3117L31.0979 13.2501Z" stroke="black"/>
<path d="M20.2119 0.25C25.7581 0.25 30.7673 1.52995 34.3809 3.58594C38.0015 5.64604 40.1738 8.45344 40.1738 11.5C40.1738 14.5466 38.0015 17.354 34.3809 19.4141C30.7673 21.47 25.7581 22.75 20.2119 22.75C14.6659 22.75 9.65744 21.47 6.04395 19.4141C2.42312 17.3539 0.25 14.5467 0.25 11.5C0.25 8.45334 2.42312 5.64606 6.04395 3.58594C9.65744 1.53001 14.6659 0.250032 20.2119 0.25Z" stroke="black" stroke-width="0.5"/>
</svg>
