<svg width="20" height="20" viewBox="0 0 20 20" fill="none" xmlns="http://www.w3.org/2000/svg">
<path d="M5.03516 11.3879L7.00004 16.6199C7.00004 16.6199 7.2457 17.1094 7.50875 17.1094C7.7718 17.1094 11.6843 13.1937 11.6843 13.1937L16.0352 5.10938L5.10527 10.0374L5.03516 11.3879Z" fill="#C8DAEA"/>
<path d="M7.47627 12.1094L7.04275 16.5101C7.04275 16.5101 6.86128 17.8585 8.27272 16.5101C9.68416 15.1617 11.0352 14.1219 11.0352 14.1219" fill="#A9C6D8"/>
<path d="M5.21482 11.2698L1.37556 10.0209C1.37556 10.0209 0.916724 9.83509 1.06447 9.41366C1.09488 9.32675 1.15623 9.25281 1.33977 9.12572C2.19045 8.53376 17.0851 3.18905 17.0851 3.18905C17.0851 3.18905 17.5057 3.04757 17.7537 3.14167C17.8151 3.16063 17.8703 3.19553 17.9137 3.24279C17.9571 3.29004 17.9872 3.34796 18.0008 3.41063C18.0276 3.52131 18.0388 3.63518 18.0341 3.74895C18.0329 3.84737 18.021 3.93859 18.012 4.08164C17.9212 5.54291 15.2065 16.4488 15.2065 16.4488C15.2065 16.4488 15.0441 17.087 14.4622 17.1088C14.3191 17.1134 14.1767 17.0892 14.0432 17.0377C13.9098 16.9862 13.7881 16.9083 13.6854 16.8088C12.5434 15.8282 8.59642 13.18 7.72424 12.5975C7.70457 12.5842 7.688 12.5667 7.67566 12.5464C7.66331 12.5261 7.65547 12.5034 7.65267 12.4798C7.64047 12.4184 7.70733 12.3423 7.70733 12.3423C7.70733 12.3423 14.5801 6.24337 14.763 5.60311C14.7772 5.55351 14.7237 5.52904 14.6518 5.55076C14.1954 5.71842 6.2822 10.7074 5.40884 11.258C5.34597 11.277 5.27952 11.281 5.21482 11.2698Z" fill="white"/>
</svg>
