<svg width="110" height="40" viewBox="0 0 110 40" fill="none" xmlns="http://www.w3.org/2000/svg">
<path d="M23.8839 13.6631L14.3986 23.0898L20.7248 29.4121L21.008 29.6943H10.9601C9.87266 29.6943 9.00911 28.8051 9.00894 27.7646V14.2998C9.00894 12.3319 8.81079 11.3733 10.2804 9.9082L15.1974 5L23.8839 13.6631ZM9.91812 27.543C9.3141 28.1434 9.54255 29.5292 10.9611 29.5293H20.6066C20.5804 29.5031 14.316 23.2448 14.2775 23.21L9.91812 27.543ZM38.7472 19.2646C40.7083 19.2648 42.6544 20.5342 42.6544 23.043C42.6543 25.5519 40.7082 26.8202 38.7472 26.8203C36.7863 26.8203 34.8392 25.552 34.839 23.043C34.839 20.5341 36.7862 19.2646 38.7472 19.2646ZM46.1066 19.2646C47.5486 19.2646 48.3276 19.7981 48.8322 20.6777L47.6496 21.5C47.3035 20.9812 46.8279 20.6779 46.1359 20.6777C45.5449 20.6777 45.1116 20.8941 45.1115 21.2832C45.1115 21.7447 45.6166 22.0046 46.7414 22.2354C48.414 22.5815 49.1056 23.2447 49.1056 24.4414C49.1056 25.7825 48.053 26.8203 46.2794 26.8203C44.5926 26.8202 43.6554 26.056 43.1652 25.1621L44.6212 24.2393C44.9672 24.8017 45.4723 25.292 46.3087 25.292C46.9287 25.292 47.4337 25.0469 47.4337 24.499C47.4336 24.0521 46.9575 23.7781 45.9337 23.5762C44.535 23.3023 43.4972 22.6385 43.4972 21.3408C43.4975 20 44.7082 19.2647 46.1066 19.2646ZM52.5773 17.5342V19.4668H54.1339V20.9375H52.5773V24.1963C52.5773 24.9316 52.9376 25.2061 53.4855 25.2061C53.7594 25.206 53.9468 25.1624 54.091 25.1191L54.2638 26.6191C53.9466 26.7344 53.4709 26.8203 53.0529 26.8203C51.8128 26.8203 50.7599 26.3013 50.7599 24.542V20.9375H49.6496V19.4668H50.7599V17.5342H52.5773ZM58.5529 19.2646C60.6004 19.2647 62.0421 20.75 62.0421 22.8408V23.4756H56.5343C56.6498 24.5713 57.4283 25.2637 58.4953 25.2637C59.461 25.2636 59.8648 24.8454 60.3117 24.2832L61.7541 25.0039C61.0332 26.2295 60.0379 26.8203 58.466 26.8203C56.4762 26.8202 54.7894 25.3067 54.7892 23.043C54.7892 20.7792 56.4764 19.2646 58.5529 19.2646ZM69.7697 19.2529C71.817 19.2531 73.2589 20.7384 73.2589 22.8291V23.4639H67.7501C67.8657 24.5596 68.6451 25.252 69.7121 25.252C70.6779 25.2518 71.0815 24.8328 71.5285 24.2705L72.9709 24.9922C72.2498 26.2177 71.2546 26.8086 69.6828 26.8086C67.693 26.8086 66.0062 25.295 66.006 23.0312C66.006 20.7674 67.6932 19.2529 69.7697 19.2529ZM77.9162 19.2529C79.4734 19.2529 80.5982 19.9307 81.1173 21.041L79.5597 21.9346C79.1128 21.2572 78.5503 20.9541 77.9015 20.9541C76.8347 20.9543 75.9982 21.7624 75.9982 23.0312C75.9984 24.3142 76.8059 25.1072 77.9015 25.1074C78.7954 25.1074 79.2571 24.6748 79.6896 24.0693L81.1896 24.8906C80.4686 26.1164 79.4446 26.8086 77.9162 26.8086C75.7966 26.8085 74.1527 25.3093 74.1525 23.0312C74.1525 20.753 75.883 19.253 77.9162 19.2529ZM85.7169 19.2529C87.6781 19.2529 89.6251 20.5222 89.6251 23.0312C89.6249 25.54 87.6779 26.8086 85.7169 26.8086C83.756 26.8085 81.81 25.5398 81.8097 23.0312C81.8097 20.5223 83.7559 19.2531 85.7169 19.2529ZM30.9171 16.5254C33.1377 16.5254 34.5079 17.6353 34.508 19.3799C34.508 20.9373 33.5703 21.8603 32.2003 22.3506L34.6378 26.6191H32.4601L30.1242 22.5234H28.5089V26.6191H26.6056V16.5254H30.9171ZM64.8859 16.5254V26.6191H63.0695V16.5254H64.8859ZM98.6916 19.2529C100.177 19.2529 100.999 20.1904 100.999 21.6035V26.6064H99.1818V22.1797C99.1817 21.3435 98.8498 20.8389 98.0568 20.8389C97.2496 20.8391 96.673 21.4448 96.673 22.627V26.6064H94.8566V22.209C94.8566 21.3438 94.4954 20.8389 93.7023 20.8389C92.9958 20.839 92.3468 21.4452 92.3468 22.5986V26.6064H90.5304V19.4551H92.3468V20.4062C92.8804 19.5843 93.6741 19.2529 94.424 19.2529C95.4763 19.2531 96.1106 19.7145 96.4132 20.4785C96.9324 19.6423 97.812 19.253 98.6916 19.2529ZM38.7472 20.9658C37.6802 20.9658 36.6847 21.7309 36.6847 23.043C36.6849 24.3551 37.6803 25.1191 38.7472 25.1191C39.8141 25.119 40.8086 24.355 40.8087 23.043C40.8087 21.731 39.8142 20.9659 38.7472 20.9658ZM85.7169 20.9541C84.65 20.9542 83.6554 21.7191 83.6554 23.0312C83.6557 24.343 84.6502 25.1073 85.7169 25.1074C86.7838 25.1074 87.7792 24.3431 87.7794 23.0312C87.7794 21.719 86.7839 20.9541 85.7169 20.9541ZM58.4953 20.6494C57.5436 20.6494 56.8222 21.2833 56.5626 22.0908H60.3556C60.1826 21.197 59.5046 20.6495 58.4953 20.6494ZM69.7121 20.6367C68.7604 20.6367 68.039 21.2716 67.7794 22.0791H71.5714C71.3984 21.1853 70.7212 20.6369 69.7121 20.6367ZM28.5089 18.1973V20.8506H30.9171C32.085 20.8506 32.6046 20.3318 32.6046 19.5244C32.6046 18.717 32.0851 18.1973 30.9171 18.1973H28.5089Z" fill="#B4B4B4"/>
</svg>
