<svg width="100" height="40" viewBox="0 0 100 40" fill="none" xmlns="http://www.w3.org/2000/svg">
<path d="M28.5322 16.796C28.6565 16.7875 29.7391 16.7157 30.0654 16.8438C30.3379 16.9505 32.6723 17.5044 32.499 21.6153C32.2923 26.5147 28.3967 25.7069 27.9658 25.5606C26.6534 25.1149 26.653 24.556 26.4092 24.7227C26.4033 24.7273 26.3896 24.766 26.3916 26.1993C26.3945 28.5069 26.4507 28.5169 26.373 28.7012C26.2675 28.9518 23.928 28.8213 23.8584 28.7881C23.6249 28.677 23.7369 28.5881 23.7109 26.4405C23.6427 20.8077 23.7832 20.8124 23.7295 20.3262C23.632 19.4426 23.7826 18.071 23.5478 17.4307C23.3975 17.0208 23.6844 17.1434 24.1113 17.0635C24.2518 17.0371 25.4928 16.8042 25.875 16.7774C26.1507 16.7582 26.1797 16.9997 26.1836 17.0323C26.2818 17.8534 26.3144 17.8484 26.3193 17.92C26.3773 18.774 26.7448 17.1629 28.5322 16.796ZM19.6826 16.7872C21.1853 16.865 22.5899 17.799 22.5937 17.9952C22.5954 18.0959 21.7173 19.2989 21.6699 19.336C21.3107 19.6164 21.4009 18.8633 19.4424 18.5489C17.7339 18.2748 17.4167 19.3789 18.2519 19.8946C18.8584 20.2689 22.5001 20.2776 22.8896 22.1807C23.7406 26.3406 17.4627 26.6065 15.0498 24.5567C14.9342 24.4585 14.9611 24.396 15.7842 23.2784C16.1363 22.8 16.2126 23.289 17.1894 23.7051C18.308 24.1816 18.8268 24.098 19.2803 24.1065C19.4027 24.0982 20.4859 24.0233 20.4873 23.2237C20.4895 21.95 17.5432 22.5474 16.001 21.1915C15.2041 20.4908 15.2883 19.2729 15.3467 19.042C15.9391 16.704 18.0173 16.701 19.6826 16.7872ZM61.5098 16.7911H61.5107C63.1747 16.9757 64.3712 17.825 64.289 18.0606C64.2682 18.1198 63.4837 19.242 63.4414 19.2823C63.1914 19.5198 62.9876 19.0735 61.6728 18.6338C61.4075 18.545 60.3416 18.4271 59.9785 18.6309C59.5908 18.8482 59.0905 19.523 60.1338 19.9483C61.4677 20.4922 64.9308 20.1733 64.6885 23.2217C64.6805 23.3203 64.4237 24.0975 64.3818 24.1758C63.0748 26.6262 58.1675 25.8987 56.7871 24.5674C56.6172 24.4035 56.8768 24.1597 57.2158 23.6836C57.5843 23.1661 57.6182 22.9217 57.9853 23.2051C59.3284 24.2417 62.465 24.6299 62.1601 23.0606C61.9067 21.7565 57.0835 22.6837 57.0693 19.6846C57.0604 17.7681 57.9955 17.3029 59.4111 16.8331C59.7483 16.7217 61.3401 16.7843 61.5098 16.7911ZM74.5625 16.8057C74.6171 16.7578 77.0449 16.6764 77.1367 16.8585C77.2381 17.0676 77.1681 17.0823 77.1592 19.7647C77.1504 22.3564 77.157 22.4303 77.1758 22.6612C77.3248 24.4726 79.4046 23.5062 80.0098 22.8995C80.1093 22.7997 80.1014 22.7756 80.0976 17.4317C80.0974 16.967 79.9473 16.748 80.4131 16.754C82.4176 16.7797 82.4163 16.7484 82.5898 16.7588C82.8326 16.7733 82.7614 17.1803 82.7607 17.1905C82.7625 24.0257 82.7353 24.0339 82.9961 25.2344C83.0162 25.3266 83.0074 25.4266 81.8652 25.5743C80.6722 25.7284 80.676 25.7527 80.5723 25.7608C80.0918 25.7977 80.2357 24.4431 80.1924 24.3379C80.1042 24.1285 79.7861 24.6035 79.7451 24.6475C78.1349 26.355 74.874 26.1669 74.5488 23.9473C74.4868 22.4261 74.4909 16.8869 74.5625 16.8057ZM65.374 25.5528C64.0873 24.7918 64.7888 22.1626 66.8174 22.9092C68.8637 24.1013 67.0558 26.5468 65.374 25.5528ZM36.7392 16.8126C38.3382 16.635 39.255 16.9075 39.4648 16.9698C40.3126 17.2222 42.2017 18.2292 42.3037 20.8086C42.5374 26.7192 36.8796 26.0111 35.5967 25.3399C35.3689 25.2209 33.8425 24.4227 33.5039 22.9043L33.458 22.7081C33.3226 22.081 33.0416 20.3338 33.833 18.795C34.4162 17.6611 35.8395 17.023 36.1758 16.961C36.7079 16.863 36.6929 16.8177 36.7392 16.8126ZM49.126 16.7647C49.4531 16.7867 49.3351 16.9665 49.1826 18.796C49.1528 19.151 48.4378 19.0196 48.3984 19.0196C47.4249 19.0194 46.5019 19.751 46.25 20.1768C46.1298 20.3797 46.2834 25.2558 46.1601 25.4874C46.072 25.653 46.009 25.577 43.8135 25.5645C43.3435 25.5617 43.5823 25.2857 43.5635 23.2227C43.533 19.8914 43.514 19.8928 43.5283 19.6036C43.6377 17.3636 43.1501 17.1568 43.4922 17.1085C44.3183 16.9914 44.3066 16.9668 44.3779 16.96C44.9473 16.9068 44.9361 16.8585 45.5049 16.7969C45.6416 16.7939 45.9648 16.6409 46.0342 17.1954C46.1559 18.1674 46.1159 18.1656 46.1416 18.2383C46.2329 18.4973 46.4803 18.0264 46.4883 18.0118C46.6635 17.7883 47.5497 16.6595 49.126 16.7647ZM73.5762 16.7598C74.1751 16.7363 73.9474 17.08 73.8066 18.877C73.7708 19.3348 72.3118 18.4398 70.9385 20.0997C70.656 20.445 71.002 25.3262 70.7471 25.5284C70.6574 25.5981 68.3495 25.554 68.3486 25.5538C68.0756 25.4607 68.2212 25.3275 68.2109 19.6836C68.2066 17.3693 67.9471 17.3735 68.0234 17.1885C68.0714 17.078 70.0248 16.8115 70.1982 16.792C70.5005 16.7909 70.6003 16.7337 70.6455 17.0362C70.8093 18.132 70.7242 18.148 70.7715 18.2315C71.0697 18.7575 71.1223 16.8559 73.5762 16.7598ZM53.8467 14.0108C54.0137 14.1279 53.8528 16.39 53.9463 16.629C54.049 16.8909 55.6812 16.6713 56.0488 16.7686C56.1873 16.8053 56.1784 16.8602 56.1807 18.7188C56.181 19.014 55.9894 18.9562 55.5586 18.9571C54.2929 18.9602 53.9865 18.8772 53.9326 19.1163C53.8731 19.3809 53.9159 22.1536 53.9199 22.419C53.9463 24.1468 55.3568 23.2591 55.8037 23.3692C55.9816 23.413 56.3935 25.0244 56.3262 25.1358C56.2096 25.3275 54.9594 25.4785 54.8359 25.4932C54.625 25.5187 53.0793 25.7046 52.1953 25.209C51.1178 24.6047 51.2463 23.6901 51.2627 19.2012C51.2642 18.7573 50.177 19.0237 50.0058 18.9649C49.795 18.8905 49.9614 17.3079 50.0195 16.9512C50.0907 16.514 51.2569 16.9828 51.2637 16.545C51.2901 14.6446 51.1132 14.4732 51.4629 14.4112C53.0064 14.1383 53.0057 14.1287 53.1406 14.1133C53.8056 14.0001 53.81 13.9851 53.8467 14.0108ZM38.2617 18.7266C35.4082 18.3362 35.8641 21.8056 36.1894 22.8155C36.6516 24.2487 39.4202 24.8047 39.6299 21.6944C39.6299 21.5886 39.6285 20.548 39.5908 20.3985C39.53 20.1588 39.5074 20.1696 39.4658 19.9268C39.4262 19.6948 38.924 18.8172 38.2617 18.7266ZM28.1279 18.8917C27.0135 18.9636 26.3774 19.7317 26.3799 19.9258C26.4174 22.8324 26.3543 22.8749 26.5312 23.0499C27.0899 23.6012 29.0258 24.516 29.6738 22.504C29.7771 22.1833 30.4832 18.9802 28.1279 18.8917Z" fill="#B4B4B4"/>
</svg>
