<svg width="110" height="40" viewBox="0 0 110 40" fill="none" xmlns="http://www.w3.org/2000/svg">
<path fill-rule="evenodd" clip-rule="evenodd" d="M5.52238 11.4973C5.58971 11.3747 5.57562 11.3385 5.71367 11.3347C8.00632 11.2724 10.7461 12.325 11.8529 13.0458C12.0108 13.1431 12.0079 13.1366 12.2257 13.2559C12.2304 13.2588 12.5481 13.467 12.621 13.5244C13.7014 14.2755 13.8083 14.4643 14.0374 14.608C14.118 14.6806 14.6204 15.1331 15.0009 15.5607C15.0936 15.6614 15.0896 15.6573 15.1853 15.7545C15.4153 16.0507 15.4173 16.0438 15.6717 16.3239C15.7027 16.3622 15.6985 16.3637 16.051 16.809C16.1001 16.8949 16.6212 17.6522 16.6314 17.6663C16.643 17.6788 16.6339 17.6802 16.7517 17.8422C16.9899 18.2285 16.9604 18.242 17.1999 18.6277C17.7614 19.632 17.6815 19.6692 17.7372 19.7518C17.8108 19.8608 18.2944 21.1238 18.3784 21.4925C18.3838 21.5162 18.4304 21.7206 18.4625 21.7842C18.481 21.8208 18.529 21.8408 18.5394 21.8805C18.6024 22.1229 18.5696 22.1259 18.6328 22.3658C18.6366 22.3802 18.6342 22.3796 18.6522 22.5518C18.6827 22.6897 18.6754 22.6879 18.7064 22.8277C18.71 22.844 18.7101 22.8426 18.7559 23.0296C18.7638 23.0684 18.8171 23.0873 18.825 23.1262C18.8852 23.4228 18.7952 23.4354 18.9217 23.7996C18.9436 23.8625 18.9395 24.3411 18.9482 24.3722C18.959 24.4107 19.0075 24.431 19.0182 24.4696C19.0334 24.5248 19.0203 24.8272 19.019 24.8583C19.008 25.0967 19.0058 25.091 19.0067 25.3314C19.0086 25.804 19.0628 25.8078 18.9654 26.0864C17.0347 26.0724 5.83471 26.0852 5.80675 26.081C5.77136 26.0758 5.73926 26.052 5.7034 26.0516C5.67391 26.0512 5.64733 26.0879 5.61921 26.0788C5.61025 26.0759 5.61707 26.0701 5.55563 25.9791C5.45787 25.8342 5.51702 12.6558 5.52223 11.4973H5.52238Z" fill="#B4B4B4"/>
<path fill-rule="evenodd" clip-rule="evenodd" d="M20.6943 10.7394C20.7467 10.7824 20.8257 10.7488 20.827 11.0187C20.8335 12.3342 20.8119 24.8908 20.8416 25.7183C20.852 26.0051 20.7197 26.063 20.6962 26.0954L20.6052 26.0843C20.3769 25.7877 20.6122 25.5887 20.4412 24.948C20.416 24.5083 20.4143 24.5117 20.3598 24.075C20.2713 23.3647 20.2464 23.3726 20.2428 23.3108C20.2409 23.2791 20.2418 23.2471 20.2398 23.2154C20.2299 23.0595 20.1731 23.0498 20.1658 23.0236C20.1483 22.9616 20.1561 22.8951 20.1488 22.831C20.121 22.5847 20.083 22.5957 20.0463 22.3488C20.0238 22.1974 19.9846 22.2108 19.968 22.0567C19.9537 21.9243 19.8845 21.8782 19.8796 21.867C19.8207 21.7363 19.8822 21.723 19.8264 21.5892C19.82 21.5739 19.7848 21.5848 19.7811 21.5687C19.7755 21.545 19.8086 21.5242 19.8057 21.5C19.8041 21.4863 19.7758 21.491 19.7704 21.4782C19.7585 21.4499 19.7705 21.4152 19.7584 21.3871C19.742 21.3491 19.6979 21.3254 19.6871 21.2854C19.6804 21.2603 19.7141 21.2371 19.711 21.2114C19.7095 21.198 19.6815 21.2035 19.6761 21.1911C19.6137 21.0471 19.6455 21.0418 19.5836 20.9014C19.5814 20.8963 19.5412 20.7405 19.4746 20.6158C19.4604 20.5892 19.4701 20.5526 19.4524 20.5283C19.4409 20.5125 19.4028 20.5279 19.3972 20.5093C19.3901 20.4863 19.429 20.4673 19.4264 20.4435C19.4247 20.4282 19.394 20.4329 19.3871 20.4191C19.3736 20.3922 19.3779 20.3596 19.3702 20.3305C19.3314 20.1853 19.1787 19.8281 19.1428 19.7701C19.0502 19.6208 19.0662 19.6168 18.98 19.4668C18.9277 19.3705 18.9412 19.3671 18.89 19.2723C18.8193 19.1757 18.8189 19.1769 18.8136 19.1679C18.791 19.1291 18.8126 19.1243 18.7882 19.0827C18.5952 18.7365 18.605 18.732 18.5864 18.7031C18.4599 18.5199 18.4799 18.5093 18.2228 18.1133C18.1992 18.0648 18.1757 18.0163 18.1521 17.9679C18.0291 17.8055 18.0308 17.811 17.9144 17.6454C17.7435 17.3885 17.7525 17.3887 17.5581 17.1439C17.426 16.9152 17.2284 16.7313 17.1713 16.6595C17.1213 16.5655 17.1229 16.5676 17.057 16.4864C17.0264 16.4531 16.9957 16.4198 16.965 16.3864C16.95 16.3707 16.8703 16.2873 16.7794 16.1875C16.75 16.1532 16.7206 16.119 16.6911 16.0848C16.6605 16.0507 16.6298 16.0167 16.5991 15.9827C16.4318 15.7855 16.4388 15.7804 16.4237 15.7638C16.4094 15.748 16.3198 15.6492 16.2415 15.5696C16.0936 15.4191 16.0674 15.455 15.9184 15.308C15.8886 15.2757 15.8587 15.2434 15.8289 15.2112C15.797 15.1799 15.765 15.1486 15.733 15.1173C15.7008 15.0856 15.6685 15.054 15.6362 15.0224C15.6035 14.9905 15.5707 14.9587 15.5381 14.9268C15.5036 14.8966 15.4692 14.8664 15.4348 14.8361C15.3311 14.7493 15.2449 14.6744 15.2285 14.6602C15.1943 14.6308 15.1601 14.6013 15.1259 14.5719C14.9996 14.4483 15.0097 14.4413 14.8592 14.3562C14.336 13.9549 14.3517 13.9379 13.7993 13.5814C13.161 13.1694 13.1672 13.1597 13.1075 13.1314C12.7977 12.9847 12.1445 12.5982 12.0479 12.5603C11.3268 12.2778 9.68802 11.3691 6.86325 11.1019C5.77748 10.9991 5.71957 11.1451 5.51978 10.9227C5.5518 10.8193 5.50813 10.7271 5.80499 10.7264C6.99617 10.7236 19.7441 10.6944 20.6944 10.7395L20.6943 10.7394Z" fill="#B4B4B4"/>
<path fill-rule="evenodd" clip-rule="evenodd" d="M76.1337 17.635L76.2304 17.6354C76.3906 17.6365 76.5507 17.6375 76.7109 17.6386C78.3121 17.6387 79.9134 17.6389 81.5146 17.639C81.7049 17.6533 81.7215 17.6207 81.8633 17.7519C81.866 17.8126 81.8959 18.4957 81.9003 18.5111C82.0206 18.9379 81.94 18.9965 81.9704 19.5581C81.9767 19.6754 81.9162 19.6269 81.7989 19.6446C81.6269 19.5539 81.6252 19.5509 81.5497 19.3679C81.5219 19.2694 81.4942 19.171 81.4664 19.0726C81.2834 18.3793 80.9193 18.2593 80.6393 18.1735C80.4725 18.15 79.9191 18.0721 78.535 18.1033C78.1264 18.1125 78.2246 18.6141 78.2246 19.0878C78.2247 21.0596 78.1968 21.1147 78.3497 21.1838C78.3775 21.1963 78.4129 21.1802 78.4407 21.1927C79.7032 21.1737 80.0302 21.2027 80.1679 21.2149C80.2768 21.227 81.1495 21.3238 81.5063 21.5094C81.5641 21.5395 81.5617 21.5363 81.6138 21.5793C81.699 21.6492 81.7397 21.5933 81.7968 21.6902C81.838 21.7602 81.8575 21.7147 81.8739 21.7213C81.9066 21.75 81.9394 21.7787 81.9721 21.8074C82.0698 21.8948 82.1457 21.9784 82.16 21.9941C82.1902 22.0276 82.2205 22.0611 82.2508 22.0946C82.3369 22.1793 82.337 22.1781 82.3438 22.1861C82.4224 22.2785 82.4257 22.2742 82.4302 22.2836C82.4378 22.2993 82.4088 22.3167 82.4139 22.3334C82.4249 22.3696 82.4677 22.3445 82.6356 22.7506C82.8932 23.3734 82.7304 24.6438 82.3431 25.015C82.2749 25.0972 82.2783 25.0958 82.2399 25.1977L82.1715 25.2224C82.1565 25.2378 82.0776 25.3189 81.9774 25.4079L81.9573 25.481C81.8526 25.5111 81.8517 25.5071 81.774 25.5792C81.6893 25.6597 81.6084 25.6821 81.5921 25.6866C81.3862 25.7437 81.27 25.9201 80.7506 26.0226C80.4136 26.1241 80.4139 26.1094 80.0696 26.1687C79.475 26.2378 79.4819 26.2786 79.1125 26.2822C78.859 26.2846 76.6585 26.3058 75.9436 26.2835C75.7457 26.2774 75.7782 26.2058 75.7729 26.0107C75.8383 25.9442 75.8341 25.9443 75.8662 25.8538C76.3788 25.9658 76.6844 25.7023 76.7386 25.6555C76.836 25.5715 76.8503 25.5953 76.8569 25.5867C77.0629 25.3195 77.0338 24.9103 77.0332 20.3369C77.0331 19.3528 77.1222 18.2562 76.6227 18.1096C76.4518 18.0594 76.4482 18.0851 76.4335 18.0805C76.0105 17.9456 76.0009 18.001 75.9654 17.9869C75.9473 17.9798 75.9586 17.9459 75.9446 17.9325C75.93 17.9187 75.8962 17.9311 75.8875 17.9131C75.8875 17.9131 75.8741 17.7598 75.8729 17.7465C75.9865 17.6533 75.9922 17.6659 76.1335 17.6352L80.3666 21.8644C80.2911 21.8388 79.5814 21.5979 79.399 21.6246C78.622 21.7384 78.5167 21.5711 78.3514 21.6931C78.2013 21.804 78.2249 21.8454 78.2246 24.5642C78.2681 24.6115 78.3484 24.6128 78.3918 24.6602C78.4639 24.7388 78.4782 25.1901 78.4797 25.2367C78.4848 25.3948 78.5963 25.456 78.5986 25.4609C78.6135 25.4924 78.5714 25.5397 78.5949 25.5656C78.6168 25.5898 78.6889 25.5326 78.6929 25.565C78.6981 25.6077 78.6014 25.6185 78.6067 25.6613C78.8045 25.7543 78.8078 25.7295 79.0203 25.786C79.2822 25.7659 79.2811 25.7591 79.3031 25.7644C79.3612 25.7782 79.342 25.811 79.4008 25.8251C79.5011 25.793 79.4896 25.7696 79.5966 25.7625C79.6442 25.7593 80.0039 25.7354 80.1833 25.6585C80.2071 25.6188 80.1982 25.5648 80.222 25.5251C80.2822 25.4241 80.3353 25.4983 80.4789 25.368C80.6641 25.1999 80.7296 25.2666 80.8459 25.0474C80.8793 24.9846 80.8881 24.9977 80.9379 24.9486C80.9742 24.9128 80.9325 24.7986 81.2305 24.7584C81.4047 24.2459 81.3753 24.2407 81.4093 23.6997C81.379 23.6545 81.3075 23.6489 81.2772 23.6037C81.2565 23.5727 81.2772 23.5288 81.2704 23.4922C81.2592 23.4321 81.0973 22.9634 81.1176 22.9334C81.1528 22.8814 81.233 22.8723 81.2683 22.8203L81.2359 22.7347C81.0502 22.7153 81.0405 22.7062 80.9511 22.5383C80.8514 22.3509 80.7915 22.4126 80.6427 22.2662C80.5442 22.1694 80.5725 22.1567 80.5643 22.1489C80.5518 22.1369 80.5475 22.152 80.3696 22.0534C80.2264 21.9741 80.1484 21.9328 80.2806 21.8367C80.1483 21.9328 80.2263 21.9741 80.3696 22.0534C80.5475 22.152 80.5518 22.1369 80.5643 22.1489C80.5725 22.1567 80.5442 22.1694 80.6427 22.2662C80.7915 22.4126 80.8514 22.3509 80.9511 22.5383C81.0405 22.7062 81.0502 22.7153 81.2359 22.7347C80.9257 22.1863 80.9002 22.1982 80.3667 21.8646L76.1335 17.6354L81.2304 24.7583C80.9324 24.7985 80.9742 24.9127 80.9379 24.9485C80.888 24.9976 80.8792 24.9845 80.8459 25.0473C80.7296 25.2665 80.6641 25.1999 80.4788 25.3679C80.3352 25.4983 80.2821 25.424 80.2219 25.525C80.1981 25.5648 80.207 25.6187 80.1833 25.6584C80.9715 25.4675 81.23 24.7591 81.2304 24.7582L76.1335 17.6353L78.2246 24.5643C78.241 25.0467 78.2597 25.4469 78.6068 25.6614C78.6015 25.6186 78.6982 25.6078 78.6929 25.5651C78.689 25.5327 78.6169 25.5899 78.595 25.5657C78.5715 25.5398 78.6136 25.4926 78.5987 25.461C78.5965 25.4561 78.4849 25.3948 78.4798 25.2368C78.4784 25.1901 78.464 24.7388 78.3919 24.6603C78.3484 24.613 78.2681 24.6117 78.2246 24.5643L76.1335 17.6352L81.2683 22.82C81.233 22.8721 81.1528 22.8812 81.1176 22.9332C81.0973 22.9632 81.2592 23.4319 81.2704 23.492C81.2772 23.5286 81.2565 23.5725 81.2772 23.6034C81.3074 23.6487 81.379 23.6542 81.4093 23.6995C81.3979 23.2476 81.4101 23.2471 81.2683 22.82L76.1335 17.6352L76.1337 17.635Z" fill="#B4B4B4"/>
<path fill-rule="evenodd" clip-rule="evenodd" d="M63.2694 20.2684C63.4721 20.2559 63.4897 20.2079 63.6449 20.3358C63.6277 20.7601 63.5413 21.1997 63.9185 20.9771C64.1603 20.8344 64.175 20.8697 64.4188 20.7294C64.8106 20.5177 65.2971 20.3702 65.376 20.3463C65.5671 20.3296 65.5641 20.3382 65.758 20.3456C66.0957 20.3797 66.0943 20.3726 66.4175 20.4688C66.4423 20.4798 66.6099 20.5539 66.7192 20.6244C66.7551 20.6482 66.76 20.6327 66.7946 20.6556C66.8034 20.6614 66.8024 20.6615 66.9 20.7357C66.9334 20.7655 66.9669 20.7954 67.0003 20.8253C67.2783 21.0816 67.2644 21.0898 67.4863 21.3936C67.5107 21.43 67.5351 21.4663 67.5595 21.5027C67.635 21.6647 67.7444 21.936 67.7597 21.974C67.7728 22.0121 67.8174 22.0339 67.8303 22.0721C67.8927 22.2554 67.8305 22.2612 67.8772 22.4485C67.8862 22.4848 67.9256 22.5108 67.9291 22.5481C67.9305 22.5634 67.9266 22.5621 67.8963 22.7377C67.8881 22.8336 67.8799 22.9296 67.8717 23.0256C67.827 23.4136 67.8501 23.4154 67.7097 23.8988C67.6232 24.197 67.6639 24.2135 67.4821 24.4636C67.3706 24.6427 67.3776 24.6407 67.2632 24.8242C67.2495 24.8409 67.1778 24.9279 67.086 25.0277C66.4175 25.665 66.3927 25.6331 65.948 25.902C65.8583 25.9655 65.8481 25.9383 65.7583 26.0029C65.7423 26.0144 65.748 26.0445 65.732 26.056C65.4917 26.0908 65.4995 26.1023 65.274 26.1826C64.94 26.2845 64.9439 26.2785 64.6003 26.3634C64.4093 26.3909 64.4128 26.3902 64.2245 26.3727C64.1859 26.3618 63.7432 26.2359 63.7418 26.2361C63.6141 26.2598 63.6437 26.3583 63.644 27.8293C63.6441 28.3442 63.6038 28.4056 63.7467 28.6893C63.7754 28.7463 63.7906 28.7315 64.2208 28.8901C64.2566 28.9033 64.283 28.913 64.6966 28.909C64.8113 29.0565 64.8003 29.063 64.8109 29.0752C64.8022 29.1083 64.8183 29.1448 64.8097 29.1779C64.7802 29.2903 64.7408 29.2499 64.6091 29.295C62.002 29.2883 62.003 29.3009 61.6339 29.3344C61.6021 29.3373 61.571 29.3453 61.5392 29.3483C61.4563 29.3564 61.4285 29.3536 61.4432 29.2682C61.4461 29.2512 61.4511 29.2544 61.5499 29.081C61.6002 28.9967 61.5849 28.9916 61.6349 28.9099C61.7053 28.9053 62.399 28.8601 62.4539 28.5819C62.4714 28.4929 62.464 28.4959 62.4923 28.4059C62.5342 28.273 62.559 21.5594 62.477 21.3969C62.3429 21.1311 62.2208 21.1705 62.2155 21.1679C62.0734 21.096 61.7847 21.0877 61.6338 21.0826C61.4156 20.7331 61.723 20.726 62.0162 20.6405C62.1169 20.6125 63.0808 20.3455 63.2692 20.2684L63.9281 21.3835C63.8987 21.5269 63.9075 21.5319 63.8964 21.538C63.8406 21.5685 63.762 21.5228 63.7063 21.5533C63.6731 21.6217 63.6431 21.6123 63.643 21.7766C63.6392 24.9557 63.5995 24.9594 63.6627 25.2282C63.6948 25.3647 63.7806 25.3422 63.8081 25.3663C63.8262 25.3822 63.8055 25.4275 63.914 25.4591C63.9836 25.4793 63.9885 25.4738 64.0207 25.5395C64.0279 25.554 64.7147 25.908 65.477 25.6327C65.4793 25.6199 65.5054 25.4723 65.5054 25.4723C65.5237 25.451 65.5645 25.4793 65.5894 25.4662C65.6284 25.4458 65.6465 25.395 65.6867 25.3772C65.7168 25.3638 65.7557 25.3926 65.7857 25.3789C65.895 25.3294 65.9185 25.1304 66.248 25.0507C66.2594 25.038 66.3643 24.9221 66.3754 24.8798C66.3832 24.8504 66.364 24.8137 66.3814 24.7887C66.3956 24.7683 66.4309 24.7794 66.453 24.7681C66.4685 24.7601 66.4577 24.7528 66.5493 24.5723C66.8137 24.0506 66.732 23.3887 66.724 23.0254C66.6816 22.95 66.5883 22.9995 66.5563 22.7274C66.5555 22.72 66.5493 22.6678 66.565 22.6351C66.5828 22.5976 66.6278 22.5777 66.6456 22.5402C66.6343 22.5003 66.5847 22.4789 66.5734 22.439C66.5662 22.4137 66.5986 22.3892 66.5952 22.3631C66.593 22.3463 66.5785 22.3516 66.5185 22.1646C66.498 22.101 66.4892 22.1091 66.4582 22.0503C66.2929 22.0335 66.2912 22.0408 66.2798 22.0322C66.2572 22.015 66.2846 21.973 66.2723 21.9475C66.253 21.9074 66.2061 21.8842 66.1887 21.8432C66.1754 21.8118 66.1979 21.7725 66.1847 21.7411C66.1512 21.7084 66.1177 21.6758 66.0843 21.6431C66.0517 21.6111 66.0191 21.5791 65.9865 21.5472C65.9529 21.5146 65.9193 21.4821 65.8857 21.4496C65.8681 21.4342 65.8779 21.3995 65.8603 21.3841C65.7807 21.3144 65.1926 21.0414 64.798 21.1055C64.6957 21.1221 64.7071 21.1481 64.5992 21.1595C64.3521 21.1857 64.3643 21.2221 64.1239 21.2925C64.1073 21.2973 64.0499 21.3142 63.9282 21.3834L63.2693 20.2683L66.248 25.0507C65.9186 25.1304 65.895 25.3294 65.7857 25.3789C65.7556 25.3926 65.7168 25.3638 65.6867 25.3772C65.6465 25.395 65.6284 25.4458 65.5894 25.4662C65.5645 25.4792 65.5237 25.451 65.5054 25.4723C65.5054 25.4723 65.4793 25.6199 65.477 25.6327C65.8975 25.3864 65.9156 25.4122 66.248 25.0507L63.2693 20.2683L66.6456 22.5402C66.6278 22.5776 66.5828 22.5975 66.565 22.6351C66.5493 22.6678 66.5555 22.72 66.5563 22.7274C66.5882 22.9995 66.6816 22.95 66.7241 23.0254C66.6976 22.7778 66.7026 22.7798 66.6457 22.5402L63.2692 20.2684L66.1847 21.7411C66.198 21.7725 66.1755 21.8118 66.1887 21.8432C66.2061 21.8842 66.2531 21.9074 66.2724 21.9475C66.2847 21.973 66.2572 22.015 66.2798 22.0322C66.2912 22.0408 66.2928 22.0335 66.4582 22.0503C66.3806 21.8881 66.3773 21.8955 66.2598 21.7604L66.1848 21.7411L63.2693 20.2683L63.2694 20.2684Z" fill="#B4B4B4"/>
<path fill-rule="evenodd" clip-rule="evenodd" d="M27.444 17.6597C27.5335 17.6514 27.623 17.6433 27.7125 17.635L27.8087 17.6357L28.097 17.638C28.7695 17.6379 29.442 17.6377 30.1145 17.6376C30.3387 17.6377 30.5628 17.6377 30.7871 17.6377L31.0753 17.6382C31.4202 17.6619 32.2248 17.5849 33.1616 18.2551C33.2638 18.3454 33.2611 18.3431 33.3645 18.4319C33.5902 18.6531 33.6323 18.7791 33.6443 18.8151C33.6746 18.9058 33.7071 18.8808 33.721 18.9132C33.7288 18.9313 33.7072 18.9529 33.7127 18.9718C33.7484 19.0941 33.7916 19.0717 33.8276 19.1967C34.113 20.1874 33.822 20.8757 33.7654 21.0093C33.7415 21.066 33.5909 21.4219 33.3608 21.6649C33.3464 21.6807 33.2704 21.7638 33.173 21.8556L33.1525 21.9283C33.0498 21.9611 33.0492 21.958 32.9721 22.03C32.821 22.1666 32.8029 22.1297 32.7904 22.1411C32.773 22.1571 32.7924 22.1952 32.7741 22.2102C32.7516 22.2285 32.7164 22.2168 32.6883 22.224C32.592 22.2489 32.6228 22.284 32.5878 22.3088C32.5143 22.3609 32.4953 22.3009 32.4207 22.3551C32.4061 22.3657 32.4149 22.3982 32.3979 22.4041C32.3777 22.4111 32.358 22.38 32.337 22.3841C32.3223 22.3869 32.3244 22.4139 32.3111 22.4208C32.1403 22.5079 32.1326 22.5076 32.1155 22.5069C32.0238 22.503 32.0273 22.51 31.9376 22.5395C31.5172 22.6781 31.5158 22.6537 31.0735 22.705C30.9176 22.7007 30.7617 22.6965 30.6058 22.6922C30.4229 22.6442 30.4282 22.6388 30.3119 22.6231C29.9107 22.5688 29.6997 22.3549 29.6995 22.7366C29.6985 24.3642 29.6862 25.3458 29.9396 25.6051C29.9681 25.6342 30.0074 25.6745 30.4006 25.8235C30.4528 25.8432 31.0016 25.8526 31.0539 25.8534C31.2183 25.8562 31.1385 25.9365 31.1409 26.1002C31.1448 26.3575 30.6673 26.2829 30.5949 26.2827C27.5436 26.2742 27.5181 26.3289 27.4011 26.223C27.2362 26.0737 27.3487 26.0473 27.4264 25.9121C27.5038 25.7774 27.5491 25.8854 27.6143 25.8879C27.7108 25.8916 28.0865 25.7942 28.0899 25.7921C28.102 25.7847 28.0938 25.7576 28.1073 25.7531C28.1535 25.7376 28.157 25.7574 28.1991 25.7295C28.6115 25.4551 28.568 25.0149 28.568 22.7385C28.5681 18.8432 28.6273 18.2645 28.1932 18.1266C28.1701 18.1193 27.9173 18.039 27.9035 18.036C27.8235 18.0188 27.6402 18.0479 27.51 17.9528C27.3737 17.8533 27.4079 17.8276 27.444 17.6597L32.0729 18.563C32.0285 18.4887 31.94 18.3561 31.5567 18.2202C31.5184 18.2066 31.4844 18.1804 31.4445 18.1725C31.4207 18.1679 31.3961 18.1906 31.3727 18.1842C31.3601 18.1807 31.3692 18.1528 31.357 18.1485C31.2705 18.1175 31.0856 18.0513 30.2093 18.0818C29.6255 18.1022 29.7031 18.3122 29.7022 18.8955C29.698 21.9728 29.7161 21.9833 29.7661 22.0297C29.7997 22.0608 29.8002 22.0507 30.1185 22.1372C30.5025 22.1041 30.4983 22.0969 30.691 22.0977C30.9575 22.0989 30.9388 22.1617 30.9822 22.1791C31.0492 22.1549 31.1162 22.1306 31.1832 22.1063C31.2374 22.0684 31.2133 21.9646 31.2676 21.9266C31.3242 21.8869 31.409 21.9272 31.4738 21.9028C31.5158 21.887 31.5338 21.8337 31.5729 21.8114C31.616 21.7868 31.6334 21.8306 31.7709 21.7186C31.9339 21.586 31.9517 21.624 31.9637 21.6109C31.9844 21.5884 31.9526 21.5447 31.9699 21.5195C31.9843 21.4985 32.0249 21.5144 32.0427 21.4961C32.0607 21.4776 32.0457 21.4393 32.0647 21.4218C32.0843 21.4036 32.1236 21.4219 32.143 21.4035C32.162 21.3853 32.1491 21.349 32.164 21.3273C32.2532 21.1974 32.3601 21.2529 32.3689 21.027C32.3756 20.8532 32.4359 20.8552 32.4456 20.8214C32.4718 20.7309 32.44 20.7305 32.4593 20.6393C32.5055 20.4214 32.6099 20.4665 32.6385 20.4337C32.6376 19.9512 32.7428 19.6596 32.4456 18.9788C32.3775 18.9713 32.3955 19.0324 32.3244 19.0245C32.3175 19.0237 32.2931 19.021 32.2688 18.9592C32.2583 18.9323 32.2771 18.8986 32.2647 18.8725C32.2454 18.832 32.1953 18.8108 32.1783 18.7692C32.1646 18.7361 32.1918 18.6949 32.1781 18.6618C32.1431 18.6288 32.1081 18.5959 32.073 18.5629L27.4441 17.6596L32.6385 20.4337C32.6099 20.4665 32.5055 20.4214 32.4593 20.6393C32.44 20.7305 32.4718 20.7309 32.4456 20.8214C32.4358 20.8552 32.3756 20.8533 32.3689 21.027C32.3601 21.2529 32.2532 21.1974 32.164 21.3273C32.1491 21.349 32.162 21.3853 32.143 21.4035C32.1235 21.4219 32.0843 21.4036 32.0647 21.4218C32.0457 21.4393 32.0607 21.4776 32.0427 21.4961C32.0249 21.5144 31.9844 21.4985 31.9699 21.5195C31.9526 21.5447 31.9844 21.5884 31.9637 21.6109C31.9517 21.624 31.9339 21.586 31.7709 21.7186C31.6334 21.8306 31.616 21.7869 31.5729 21.8114C31.5338 21.8336 31.5158 21.887 31.4738 21.9028C31.409 21.9273 31.3242 21.8869 31.2676 21.9266C31.2134 21.9645 31.2374 22.0683 31.1832 22.1063C31.2643 22.0917 31.6631 22.0202 32.1064 21.6504C32.5494 21.2808 32.6273 20.5394 32.6385 20.4338L27.4441 17.6596L32.1781 18.6618C32.1918 18.695 32.1646 18.7362 32.1783 18.7693C32.1954 18.8108 32.2454 18.832 32.2647 18.8725C32.2772 18.8986 32.2583 18.9323 32.2688 18.9593C32.2931 19.021 32.3175 19.0238 32.3244 19.0246C32.3955 19.0325 32.3775 18.9713 32.4456 18.9788C32.3711 18.8154 32.369 18.8204 32.2493 18.6854L32.1781 18.6618L27.4441 17.6596L27.444 17.6597Z" fill="#B4B4B4"/>
<path fill-rule="evenodd" clip-rule="evenodd" d="M37.515 20.3627L37.7055 20.3535C38.3297 20.3608 38.3277 20.3633 38.9398 20.4774C38.9801 20.4955 39.2953 20.6366 39.4341 20.7232C39.669 20.8763 39.6608 20.8787 39.8852 21.0471C39.9007 21.0615 39.9823 21.1379 40.0779 21.2278C40.108 21.2615 40.1381 21.2953 40.1682 21.329C40.2988 21.4873 40.2593 21.5269 40.4469 21.6194C40.4781 21.7772 40.458 21.7831 40.5181 21.8608C40.7204 22.1218 40.6734 22.1422 40.7617 22.4569C40.813 22.6399 40.8535 22.8072 40.8609 22.8378C40.8681 22.8675 40.8811 23.8607 40.8308 24.0797C40.8069 24.184 40.7653 24.1634 40.7367 24.2667C40.7212 24.3224 40.5985 24.7651 40.4683 24.9379C40.4332 24.9978 40.3981 25.0578 40.3631 25.1177C39.7385 25.9111 39.0904 26.1502 39.0409 26.177C38.9575 26.24 38.8664 26.2669 38.8501 26.2717C38.8127 26.2827 38.8137 26.2808 38.28 26.3805C37.995 26.4045 37.9968 26.4227 37.5138 26.3835L37.4189 26.3718C37.1305 26.3159 37.1346 26.3221 36.8545 26.252L36.662 26.1683C36.0772 25.8785 35.8662 25.7024 35.4324 25.121C35.4054 25.0872 35.3783 25.0534 35.3512 25.0195C35.2073 24.635 35.1778 24.6526 35.0318 24.2731C34.9942 24.0838 34.9046 23.752 34.9225 23.509C34.9944 22.5346 35.0535 22.5447 35.1336 22.2685C35.163 22.196 35.2073 21.9518 35.724 21.3364C36.2652 20.8324 36.2568 20.8146 36.935 20.5268L37.0196 20.4967C37.2661 20.4202 37.2622 20.4203 37.515 20.3626L37.9962 20.8052C37.8 20.7906 37.8013 20.7636 37.6069 20.8036C37.5451 20.8163 37.4792 20.8075 37.419 20.8265C37.4041 20.8311 37.4143 20.8657 37.399 20.869C37.3754 20.8741 37.3544 20.8425 37.3305 20.8456C37.3163 20.8475 37.3193 20.875 37.3064 20.8813C37.2791 20.8946 37.2418 20.8828 37.2175 20.901C37.1991 20.9146 37.2122 20.9516 37.1939 20.9653C37.1723 20.9883 37.241 21.0652 37.1013 21.0643C37.0467 21.0639 37.0511 21.0609 37.0007 21.0606C36.9669 21.0797 36.7323 21.2121 36.6476 21.3949C36.598 21.502 36.4711 21.6541 36.4373 21.7713C36.3939 21.9217 36.3703 21.9109 36.3414 22.0618C36.2717 22.4262 36.2445 22.4158 36.2422 22.4476C36.1557 23.6791 36.3064 24.1404 36.3521 24.28C36.4267 24.5082 36.4252 24.5067 36.4479 24.5683C36.4919 24.6874 36.5097 24.6734 36.5127 24.6836C36.5252 24.7266 36.5042 24.7276 36.5272 24.7704C36.5839 24.8758 36.5991 24.8626 36.6032 24.8718C36.6113 24.8899 36.5856 24.911 36.5912 24.9299C36.5957 24.9451 36.6206 24.9454 36.629 24.959C36.6868 25.0524 36.6696 25.0575 36.7266 25.1537C36.8802 25.1774 36.8859 25.1674 36.8921 25.1793C36.9206 25.2338 36.8651 25.3093 36.8936 25.3639C36.9852 25.4518 37.1958 25.908 37.9906 25.9482C38.4999 25.974 38.4757 25.867 38.4939 25.8618C38.5163 25.8556 38.5364 25.8899 38.5595 25.8862C38.5748 25.8837 38.5716 25.8551 38.585 25.8474C38.752 25.7509 38.7611 25.7478 38.7777 25.7422C38.8739 25.7098 38.8769 25.6692 38.8919 25.6582C38.9181 25.5986 38.8693 25.5225 38.8955 25.4629C38.907 25.4368 38.961 25.4765 38.9808 25.456C39.0013 25.4347 38.9653 25.3869 38.9876 25.3675C39.0118 25.3463 39.0603 25.3873 39.084 25.3656C39.1065 25.3449 39.0586 25.2745 39.0891 25.2741C39.1333 25.2735 39.1421 25.3648 39.1863 25.3642C39.2873 25.2134 39.282 25.215 39.3683 25.0585C39.3495 25.0172 39.2908 25.0035 39.2719 24.9622C39.2601 24.9366 39.2489 24.912 39.4711 24.671C39.5322 24.47 39.5635 24.2234 39.5685 24.184C39.5617 24.1712 39.4684 24.1394 39.4651 23.9899C39.4613 23.8179 39.4602 23.8206 39.4657 23.8071C39.495 23.7337 39.5483 23.7816 39.5775 23.7085L39.576 23.6059C39.4962 23.4649 39.4572 23.4799 39.4592 23.314C39.4624 23.0427 39.5498 23.0558 39.5654 23.0257C39.4628 22.3724 39.4641 22.3343 39.2789 21.9556C39.2388 21.9337 39.2336 21.9721 39.1929 21.9498C39.1832 21.9445 39.1264 21.9135 39.0934 21.8541C39.0782 21.8268 39.101 21.7887 39.0874 21.7606C39.0579 21.6998 39.0003 21.7206 38.9957 21.466C38.9899 21.451 39.0337 21.4284 38.9649 21.3876C38.9329 21.3687 38.9324 21.3791 38.8992 21.3594C38.872 21.3475 38.8085 21.3896 38.6942 21.2694C38.5755 21.1445 38.6146 21.0939 38.5997 21.0611C38.5363 21.042 38.4646 21.0813 38.4012 21.0622C38.3356 21.0425 38.3623 20.9831 38.2077 20.9654C38.0138 20.9431 38.0151 20.8196 37.9963 20.8053C38.0151 20.8196 38.0138 20.9431 38.2077 20.9654C38.3623 20.9831 38.3356 21.0425 38.4012 21.0622C38.4646 21.0813 38.5363 21.042 38.5997 21.0611L38.6388 21.05C38.327 20.8935 38.3403 20.8577 37.9963 20.8054L37.5152 20.3628L39.5655 23.0257C39.5498 23.0558 39.4624 23.0427 39.4592 23.314C39.4572 23.4799 39.4962 23.4649 39.576 23.6059C39.5778 23.5722 39.6073 23.5441 39.609 23.5104C39.6123 23.447 39.5954 23.3842 39.5908 23.3209C39.5798 23.1724 39.5784 23.1762 39.5655 23.0258L37.5152 20.3629L38.9958 21.4661C39.0004 21.7206 39.058 21.6999 39.0875 21.7607C39.1011 21.7888 39.0782 21.8269 39.0934 21.8542C39.1265 21.9135 39.1833 21.9446 39.1929 21.9498C39.2336 21.9721 39.2389 21.9337 39.279 21.9557C39.1308 21.5335 39.0414 21.5193 38.9958 21.4661L37.5152 20.363L39.1863 25.3644C39.1422 25.365 39.1333 25.2737 39.0891 25.2743C39.0586 25.2748 39.1065 25.3451 39.084 25.3658C39.0603 25.3876 39.0118 25.3465 38.9876 25.3677C38.9653 25.3872 39.0013 25.4349 38.9808 25.4562C38.961 25.4767 38.907 25.437 38.8955 25.4632C38.8693 25.5228 38.9181 25.5988 38.8919 25.6584C39.0565 25.5632 39.0609 25.5662 39.1862 25.3643L37.5152 20.3629L39.5774 23.7085C39.5481 23.7818 39.4949 23.7338 39.4655 23.8071C39.4601 23.8207 39.4612 23.8181 39.4649 23.99C39.4682 24.1395 39.5615 24.1713 39.5683 24.184C39.5855 23.9449 39.5781 23.9494 39.5773 23.7085L37.515 20.3628L38.6386 21.05L38.5995 21.0611C38.6145 21.094 38.5753 21.1445 38.6941 21.2694C38.8083 21.3896 38.8719 21.3475 38.899 21.3594C38.8159 21.1667 38.8018 21.1769 38.6385 21.0499L37.5149 20.3628L39.4709 24.671C39.2487 24.912 39.2599 24.9366 39.2716 24.9622C39.2905 25.0036 39.3492 25.0172 39.3681 25.0585C39.4379 24.8695 39.4401 24.8737 39.4709 24.671L37.5149 20.3628L37.515 20.3627Z" fill="#B4B4B4"/>
<path fill-rule="evenodd" clip-rule="evenodd" d="M71.3433 20.3822C72.001 20.3391 72.1914 20.2921 72.8806 20.4928L73.0551 20.5464C73.4987 20.7571 73.497 20.7579 73.8911 21.0539C74.837 21.9464 74.8309 22.9854 74.8441 23.1282C74.8524 23.2687 74.8519 23.2657 74.849 23.4081C74.8183 23.805 74.8288 23.802 74.7365 24.1912C74.6533 24.469 74.6691 24.4687 74.561 24.7387C74.4968 24.856 74.1839 25.628 73.0485 26.1687C72.6843 26.3287 72.6777 26.2973 72.2911 26.3788C71.745 26.4369 71.6319 26.3861 71.4303 26.3737C71.1314 26.3198 71.142 26.2887 70.8386 26.2402C70.7449 26.2253 70.7436 26.2353 70.6683 26.1778C70.4919 26.0914 70.4967 26.0874 70.3074 26.0545C70.2895 26.0233 70.3029 26.0223 70.2848 25.9904C70.2514 25.9319 70.2135 25.9649 70.2074 25.9627C70.1768 25.9322 70.1462 25.9016 70.1156 25.871C70.0815 25.8419 70.0474 25.8128 70.0133 25.7837C69.9795 25.7542 69.9455 25.7247 69.9117 25.6952C69.8139 25.6027 69.7362 25.5207 69.7213 25.5051C69.692 25.4711 69.6627 25.4371 69.6334 25.4032C69.5419 25.2539 69.5345 25.2657 69.4245 25.1328C69.3567 25.0445 69.3658 25.0401 69.0461 24.3652C68.9396 24.1405 68.9642 24.1361 68.9417 23.891C68.9128 23.4555 68.9189 23.4605 68.9429 23.0293C68.9711 22.893 69.0202 22.4414 69.244 21.9829C69.313 21.8493 69.3062 21.8521 69.3552 21.7141C69.3868 21.6803 69.4186 21.6465 69.4502 21.6127C69.4802 21.5808 69.5102 21.549 69.5402 21.5171C69.5691 21.4836 69.598 21.4501 69.6268 21.4167C69.7198 21.3197 69.8015 21.2402 69.817 21.2251C69.8496 21.1941 69.8823 21.163 69.9149 21.132C69.9488 21.1035 69.9828 21.075 70.0167 21.0465C70.1643 20.9601 70.1564 20.9549 70.2958 20.8505C70.3085 20.8391 70.3935 20.7629 70.4731 20.7315C70.5023 20.7137 70.5232 20.7009 70.8603 20.5507C71.0961 20.4467 71.0957 20.4532 71.3432 20.3824L71.2238 20.8908C71.211 20.9128 71.2199 20.9686 71.1178 21.0715C70.9919 21.1986 70.9495 21.1456 70.912 21.1622C70.8898 21.184 70.9261 21.2333 70.904 21.2552C70.904 21.2552 70.7518 21.2826 70.7386 21.285C70.7087 21.3188 70.6788 21.3528 70.6489 21.3866C70.6425 21.4217 70.7256 21.4321 70.7191 21.4672C70.7112 21.5107 70.6415 21.516 70.6185 21.5538C70.6031 21.5788 70.6326 21.6204 70.6125 21.6417C70.6125 21.6417 70.4826 21.6813 70.4713 21.6847C70.4141 21.787 70.4117 21.7853 70.4095 21.7952C70.4044 21.8173 70.4312 21.8407 70.4232 21.8619C70.4084 21.9012 70.3661 21.9249 70.3467 21.9621C70.2406 22.1666 70.3029 22.4471 70.1825 22.8359C70.1328 22.9962 70.2563 24.1933 70.3953 24.4607C70.4017 24.4729 70.428 24.4647 70.4329 24.4775C70.455 24.5354 70.4479 24.6019 70.4711 24.6594C70.4779 24.6761 70.5109 24.6701 70.5177 24.6867C70.5993 24.7997 70.6321 24.7622 70.7132 24.8744C70.7439 24.9169 70.6933 24.9256 70.7201 24.9668C70.7709 25.0449 70.8561 25.0963 70.908 25.1737C70.9237 25.1972 70.9037 25.2327 70.9156 25.2584C70.9345 25.2988 70.9791 25.3239 70.9968 25.3649C71.0101 25.3956 70.9915 25.4342 71.0047 25.465C71.0259 25.4856 71.0718 25.4541 71.093 25.4747C71.093 25.4747 71.126 25.6217 71.1288 25.6345C71.8645 26.1957 72.4295 25.8852 72.6 25.852C72.7885 25.8153 73.0622 25.497 73.0952 25.4587C73.096 25.4443 73.1046 25.2785 73.1046 25.2785C73.1134 25.269 73.116 25.2758 73.2609 25.242C73.3657 25.0529 73.7042 24.1677 73.5401 22.932C73.4275 22.0844 73.2418 22.0116 73.1881 21.7638C73.1448 21.5645 72.7306 21.1462 72.6837 21.0987C72.6567 21.0951 72.6372 21.0667 72.6102 21.063C72.4115 21.0361 72.3796 21.0844 72.3143 20.9673C72.2996 20.9411 72.3235 20.9036 72.3088 20.8774C72.0621 20.8256 72.0661 20.8289 71.8132 20.7889C71.6207 20.7583 71.6243 20.7933 71.4286 20.8191C71.3201 20.8334 71.3346 20.8691 71.224 20.8907L71.3434 20.3823L70.5178 24.6868C70.5226 24.7336 70.5059 24.7323 70.5269 24.7756C70.6359 25.0002 70.5737 25.0679 70.9322 25.4436L71.0048 25.4651C70.9915 25.4344 71.0102 25.3958 70.9969 25.365C70.9792 25.324 70.9346 25.2989 70.9157 25.2585C70.9038 25.2327 70.9238 25.1973 70.908 25.1737C70.8562 25.0964 70.771 25.045 70.7202 24.9669C70.6934 24.9256 70.7439 24.9169 70.7133 24.8745C70.6322 24.7623 70.5995 24.7998 70.5178 24.6868L71.3433 20.3823L71.224 20.8907C70.9616 21.0099 70.9825 21.037 70.8315 21.183L70.9122 21.162C70.9497 21.1455 70.9921 21.1985 71.118 21.0714C71.2201 20.9684 71.2112 20.9127 71.224 20.8907L71.3434 20.3823L72.3088 20.8773C72.3235 20.9035 72.2996 20.941 72.3143 20.9672C72.3796 21.0843 72.4115 21.036 72.6102 21.063C72.6372 21.0666 72.6567 21.095 72.6837 21.0987C72.5511 20.9828 72.5584 20.9716 72.3088 20.8773L71.3434 20.3823L70.6491 21.3865C70.5475 21.528 70.5615 21.5329 70.4715 21.6846C70.4828 21.6812 70.6127 21.6417 70.6127 21.6417C70.6329 21.6203 70.6034 21.5788 70.6187 21.5537C70.6418 21.5159 70.7115 21.5107 70.7194 21.4671C70.7257 21.4321 70.6427 21.4216 70.6491 21.3865L71.3434 20.3823L71.3433 20.3822Z" fill="#B4B4B4"/>
<path fill-rule="evenodd" clip-rule="evenodd" d="M55.2917 20.4572C56.1207 20.6043 58.458 20.315 59.5984 20.6538C59.6798 20.678 59.6794 20.666 59.6861 20.6683C59.723 20.6807 59.7084 20.7626 59.8775 20.76C59.984 20.7583 59.9477 20.8134 59.9765 20.8406C59.9962 20.8591 60.0353 20.8384 60.0563 20.8555C60.0648 20.8625 60.0193 20.8844 60.1187 20.9789C60.2423 21.0965 60.2436 21.094 60.2619 21.1196C60.2692 21.1298 60.358 21.3031 60.3597 21.3051C60.561 21.5636 60.3888 22.0643 60.3464 22.2414C60.2971 22.4466 60.2076 22.3987 60.1621 22.5246C60.1378 22.592 60.1362 22.5929 60.0719 22.62C60.0719 22.62 59.9754 22.7028 59.9669 22.71C59.6577 22.8558 59.6717 22.8856 59.3331 22.9543C59.3183 22.9573 59.1657 22.9882 59.2355 23.1154C59.2573 23.1551 59.2656 23.1541 59.7848 23.2547C59.8221 23.2757 59.8592 23.2968 59.8965 23.3179C60.0836 23.4302 60.0901 23.4094 60.2735 23.5198C60.5712 23.7483 60.5729 23.7529 60.7373 24.0931C60.7504 24.1203 60.7512 24.1518 60.7575 24.1813C60.891 24.806 60.7357 25.1246 60.6315 25.3113C60.607 25.3471 60.5824 25.383 60.5579 25.4189C60.5131 25.4725 60.533 25.4873 60.4716 25.5222C60.4529 25.5328 60.4615 25.5381 60.2705 25.7002C60.1234 25.8078 60.1187 25.7905 59.8925 25.8943C59.6528 26.0392 59.0117 26.1559 58.9332 26.1702C58.4977 26.2362 58.5001 26.2336 58.4629 26.2414C58.2072 26.2954 58.0914 26.3199 55.1963 26.2751C55.0551 25.8888 55.2974 25.9123 55.3868 25.8562C55.9674 25.822 56.0218 25.7345 56.0894 25.1434C56.1402 24.7371 56.1295 22.1353 56.0985 21.6772C56.0581 21.3035 56.1178 20.8278 55.39 20.8695C55.3481 20.833 55.1004 20.7899 55.2918 20.4574L58.566 23.4627C58.4692 23.4322 58.1482 23.3311 57.2992 23.3922C57.1331 23.4041 57.1659 23.5989 57.1685 24.7563C57.1691 25.0475 57.1331 25.0504 57.2185 25.3294C57.2228 25.3434 57.2527 25.3373 57.2563 25.3514C57.268 25.3972 57.2491 25.3996 57.2749 25.443C57.5385 25.8881 57.6681 25.6922 57.8778 25.7642C57.9145 25.7768 57.9378 25.8193 57.9758 25.8272C58.216 25.8764 58.2148 25.8476 58.4599 25.8277C58.4971 25.8136 58.5216 25.7751 58.5587 25.761C58.5719 25.7561 58.5716 25.762 58.734 25.7731C58.8337 25.5676 58.8704 25.6043 58.9574 25.5577C58.9971 25.5364 59.0171 25.4852 59.0589 25.4686C59.0931 25.4552 59.1349 25.4875 59.1691 25.474C59.2039 25.441 59.2388 25.4079 59.2737 25.3749C59.2889 25.3403 59.2508 25.2964 59.266 25.2618C59.3041 25.1752 59.356 25.1998 59.3691 25.0626C59.379 24.9579 59.3814 24.9552 59.3875 24.9482C59.4505 24.8765 59.4838 24.9319 59.5488 24.8579C59.5199 24.8154 59.4613 24.7993 59.4324 24.7568C59.4105 24.7248 59.4105 24.5306 59.4514 24.466C59.4756 24.4278 59.5199 24.4052 59.5441 24.3669C59.5035 24.2141 59.5044 24.2177 59.4467 24.0695C59.3749 24.0623 59.3935 24.1288 59.3218 24.1216C59.3144 24.1209 59.2928 24.1187 59.2608 24.051C59.2487 24.0252 59.2693 23.9857 59.2484 23.9661C59.2269 23.946 59.1829 23.9759 59.1603 23.9569C59.1397 23.9392 59.1549 23.9018 59.1436 23.8771C59.0755 23.729 59.0306 23.7865 58.9615 23.7556C58.9194 23.7368 58.9019 23.6818 58.8608 23.6609C58.8328 23.6467 58.7928 23.6741 58.7669 23.6565C58.6897 23.6046 58.6434 23.5146 58.5662 23.4627L55.292 20.4574L58.3703 20.9694C58.2708 20.9462 58.271 20.986 58.173 20.9632C58.1131 20.9493 58.1336 20.9144 58.0736 20.9004C58.0724 20.9001 57.5791 20.8804 57.4013 20.9181C56.9884 21.0058 57.254 21.833 57.1446 22.6422C57.111 22.8909 57.1521 22.9215 57.3992 22.9696C57.4449 22.96 57.4504 22.8779 57.4961 22.8683C57.5228 22.8627 57.8503 22.8678 57.8811 22.8683C58.025 22.8705 58.059 22.9447 58.0755 22.9518C58.1126 22.9377 58.1349 22.8961 58.1719 22.882C58.186 22.8766 58.1855 22.8843 58.3576 22.9128L58.4476 22.8951C58.5389 22.6625 58.5845 22.7042 58.6599 22.6604C58.8362 22.558 58.8398 22.5719 58.8526 22.5601C58.8728 22.5414 58.8521 22.5008 58.8693 22.4795C58.8851 22.4599 58.9219 22.4701 58.9397 22.4524C58.9576 22.4347 58.9458 22.3951 58.9673 22.3822C58.9952 22.3655 59.042 22.4008 59.0648 22.3776C59.148 22.2927 59.0034 22.2484 59.0867 22.162C59.1337 22.1132 59.2217 22.1201 59.2688 22.0713C59.2359 22.0252 59.1654 22.0161 59.1325 21.9699C59.1325 21.9699 59.1505 21.7919 59.1521 21.7764C59.1446 21.7561 59.0842 21.7174 59.0755 21.5685C59.0551 21.2184 58.7687 21.3164 58.7066 21.2013C58.683 21.1577 58.6916 21.1012 58.6681 21.0575C58.6315 21.036 58.595 21.0145 58.5583 20.993C58.4956 20.9852 58.4329 20.9773 58.3702 20.9694L55.2919 20.4575L59.2688 22.0715C59.2218 22.1203 59.1338 22.1134 59.0867 22.1622C59.0034 22.2486 59.148 22.2928 59.0648 22.3777C59.042 22.4009 58.9952 22.3656 58.9673 22.3823C58.9457 22.3953 58.9576 22.4349 58.9397 22.4526C58.9219 22.4703 58.8851 22.4601 58.8693 22.4796C58.8521 22.501 58.8728 22.5417 58.8526 22.5603C58.8399 22.5721 58.8363 22.5581 58.6599 22.6606C58.5845 22.7044 58.5388 22.6627 58.4476 22.8952C59.1409 22.6691 59.2067 22.4433 59.2689 22.0714L55.292 20.4574L58.5662 23.4627C58.6434 23.5146 58.6897 23.6046 58.7669 23.6565C58.7928 23.6741 58.8329 23.6467 58.8608 23.6609C58.9019 23.6818 58.9194 23.7368 58.9615 23.7556C59.0306 23.7865 59.0755 23.729 59.1436 23.8771C59.1549 23.9018 59.1397 23.9393 59.1603 23.9569C59.1829 23.9759 59.2269 23.946 59.2484 23.9661C59.2693 23.9857 59.2486 24.0251 59.2608 24.051C59.2929 24.1187 59.3144 24.1209 59.3218 24.1216C59.3935 24.1288 59.3749 24.0623 59.4467 24.0695C59.4174 24.0093 59.2586 23.5935 58.5662 23.4627L55.292 20.4574L58.6681 21.0575C58.6916 21.1012 58.683 21.1577 58.7066 21.2013C58.7687 21.3164 59.0551 21.2184 59.0755 21.5685C59.0842 21.7174 59.1446 21.7561 59.1521 21.7764L59.2575 21.6751C59.1289 21.2419 58.955 21.1257 58.6682 21.0575L55.292 20.4573L59.5488 24.8579C59.4838 24.9318 59.4506 24.8764 59.3875 24.9482C59.3814 24.9551 59.379 24.9579 59.3691 25.0626C59.356 25.1998 59.3041 25.1751 59.266 25.2617C59.2508 25.2963 59.2889 25.3402 59.2737 25.3748L59.3548 25.358C59.4326 25.2498 59.4649 25.2641 59.5488 24.8579L55.292 20.4573L59.5441 24.3669C59.5199 24.4052 59.4756 24.4278 59.4514 24.466C59.4105 24.5306 59.4105 24.7248 59.4324 24.7568C59.4613 24.7993 59.5199 24.8154 59.5488 24.8579C59.5863 24.6112 59.5847 24.6145 59.544 24.3669L55.292 20.4573L59.1691 25.4738C59.1349 25.4873 59.0931 25.455 59.0589 25.4685C59.0171 25.485 58.9971 25.5362 58.9574 25.5575C58.8704 25.6042 58.8336 25.5675 58.734 25.7729C59.1217 25.6327 59.1022 25.5961 59.1543 25.5564L59.1691 25.4738L55.292 20.4573L59.2575 21.6751L59.1521 21.7764C59.1506 21.7919 59.1325 21.9699 59.1325 21.9699C59.1654 22.0161 59.2359 22.0252 59.2688 22.0713C59.2899 21.8716 59.2893 21.8734 59.2575 21.6751L55.292 20.4573L55.2917 20.4572Z" fill="#B4B4B4"/>
<path fill-rule="evenodd" clip-rule="evenodd" d="M48.7531 17.6405L49.1373 17.6405L49.4255 17.6406C49.5857 17.6406 49.7458 17.6406 49.9059 17.6405C50.162 17.6405 50.4183 17.6404 50.6745 17.6404C51.283 17.6405 51.8914 17.6405 52.4999 17.6405H52.7881C53.0123 17.6405 53.2366 17.6406 53.4609 17.6406C53.5857 17.6679 53.6964 17.6242 53.7114 18.0367L53.7297 18.2262C53.7358 18.3026 53.768 18.7042 53.7947 19.1821C53.8056 19.4163 53.8276 19.4197 53.7389 19.6394C53.6548 19.6401 53.5705 19.6407 53.4863 19.6414C53.3118 19.2434 53.2503 18.3115 52.5038 18.203C52.3039 18.1739 52.3046 18.1915 52.1164 18.1234C52.0641 18.1045 51.5854 18.1037 51.5392 18.1036C50.4627 18.102 50.1163 18.0188 50.0952 18.4167C50.0455 19.3496 50.0844 21.0694 50.0897 21.3C50.0959 21.5794 50.4699 21.5111 51.5399 21.499C51.699 21.4876 51.8581 21.4761 52.0173 21.4647C52.3625 21.3761 52.6421 21.4704 52.7218 20.5378C52.8178 20.4702 52.9594 20.431 52.9812 20.4249C53.0187 20.4548 53.0269 20.4306 53.0612 20.4579C53.068 20.4634 53.1078 20.4951 53.129 20.5428C53.1408 20.5693 53.1258 20.603 53.1377 20.6295C53.1376 22.3088 53.1383 22.3072 53.1356 22.9268C53.1138 22.9863 53.0918 23.0458 53.07 23.1053C52.8999 23.1124 52.8999 23.1186 52.8864 23.1129C52.872 23.107 52.8806 23.0755 52.8656 23.0711C52.8374 23.0628 52.746 23.1401 52.7219 22.9271C52.6889 22.6347 52.6666 22.6426 52.5953 22.3565C52.5112 22.2452 52.5129 22.2475 52.405 22.1621C51.9533 21.9125 51.0559 22.1299 50.387 22.0088C50.3624 22.0044 50.2225 22.0109 50.2089 22.0159C50.0666 22.0682 50.092 22.1266 50.0918 24.3737C50.1158 24.7265 50.0928 24.7242 50.1688 25.147L50.1878 25.24C50.2958 25.5749 50.3393 25.5685 50.557 25.667C50.6806 25.7103 50.7224 25.752 51.6353 25.7532C52.8308 25.7547 53.0858 25.7474 53.4897 25.3603C53.746 25.1146 53.6889 25.0776 53.8625 24.7665C53.9314 24.643 54.0967 24.1549 54.1505 24.1245C54.1697 24.1136 54.1946 24.142 54.2158 24.1357C54.2282 24.1319 54.2191 24.1045 54.2313 24.1001C54.3458 24.0591 54.349 24.0874 54.43 24.1738C54.4426 24.1873 54.4751 24.1764 54.4817 24.1937C54.5027 24.2492 54.3844 24.8463 54.2924 25.1348C54.0558 26.1205 54.0575 26.1197 54.0214 26.2553C53.9856 26.2641 53.9937 26.2258 53.9584 26.2345C53.9433 26.2382 53.9514 26.2699 53.9371 26.2759C53.9198 26.2833 53.7639 26.2838 53.7488 26.2838C53.2723 26.2851 48.3205 26.2995 47.7935 26.2852C47.7371 26.2837 47.485 26.1629 47.656 25.9833C47.7486 25.8862 47.7071 25.8642 47.7164 25.8582C47.7849 25.8147 47.7985 25.9294 48.2757 25.8288C48.5555 25.7698 48.5278 25.714 48.5931 25.6681C48.6968 25.6238 48.696 25.6271 48.7708 25.5371C48.7744 25.5221 48.7998 25.5194 48.8033 25.5044C48.8108 25.4727 48.7829 25.4777 48.7922 25.4471C48.7964 25.4333 48.8218 25.436 48.828 25.4231C48.8969 25.2788 48.8494 24.7179 48.9319 24.372C48.9431 24.3248 48.9432 24.02 48.9432 23.9893C48.9444 19.4991 48.9665 18.5768 48.7638 18.3143C48.7495 18.2958 48.7138 18.3046 48.6994 18.2861C48.6476 18.1881 48.647 18.1916 48.5592 18.132C48.3024 18.0847 48.3035 18.0872 48.2819 18.0809C48.2441 18.0701 48.2167 18.0325 48.1783 18.0244C48.0857 18.005 47.9881 18.0192 47.8955 17.9997C47.823 17.9271 47.8385 17.917 47.7677 17.8468C47.8084 17.7224 47.7703 17.6828 47.8891 17.6505C47.957 17.6319 48.4034 17.6391 48.753 17.6405L48.7531 17.6405Z" fill="#B4B4B4"/>
<path fill-rule="evenodd" clip-rule="evenodd" d="M98.7094 16.8814C98.8405 16.9072 98.8758 16.8679 98.9097 16.9722C98.9633 17.1367 98.8693 22.8617 98.96 22.9616C99.0134 23.0203 99.0123 23.0245 99.0934 23.0232C99.2001 23.0215 99.1929 22.9983 99.4022 22.8782C99.4293 22.8671 99.4564 22.856 99.4836 22.845C99.5919 22.7576 99.5881 22.7609 99.691 22.6658C99.7233 22.6338 99.7556 22.6018 99.7879 22.5699C99.8196 22.5372 99.8512 22.5045 99.8828 22.4718C99.956 22.3906 99.9541 22.3937 99.9993 22.2927C100.008 22.2874 100.103 22.2264 100.103 22.2264C100.108 22.2145 100.086 22.1999 100.093 22.1887C100.095 22.1854 100.152 22.1668 100.179 22.0881C100.247 21.8854 100.417 21.821 100.463 21.7024C100.587 21.3844 101.2 21.0461 100.633 20.8999C100.458 20.8512 100.455 20.8659 100.371 20.8104C100.366 20.6633 100.34 20.6411 100.463 20.5646C100.72 20.4048 102.045 20.4877 102.169 20.4405C102.309 20.3871 102.304 20.377 102.456 20.3765C102.521 20.3763 102.586 20.3786 102.65 20.3785C102.702 20.3925 102.701 20.3707 102.75 20.384C102.919 20.4302 102.991 20.527 103.001 20.533C102.996 20.5908 102.991 20.6486 102.986 20.7064C102.942 20.7205 102.898 20.7345 102.854 20.7485C102.839 20.7531 102.848 20.7864 102.833 20.7909C102.795 20.8023 102.794 20.7795 102.348 20.8744C102.006 20.958 101.844 20.9827 100.992 21.8527C100.83 22.0176 100.612 22.296 100.319 22.6246C100.117 22.8516 100.245 22.9105 100.693 23.4419C100.792 23.5585 101.545 24.4501 101.953 24.8748C102.195 25.1149 102.179 25.1252 102.432 25.3593C102.611 25.5273 102.583 25.5609 102.805 25.6665C102.869 25.7162 103.025 25.9359 103.31 25.856C103.442 25.819 103.518 25.7785 103.497 25.9159C103.479 26.0268 103.322 26.2769 103.317 26.2795C103.305 26.2854 101.84 26.2919 101.788 26.2711C101.646 26.213 101.353 25.7817 101.125 25.515C101.034 25.4106 101.036 25.4132 100.945 25.3108C100.915 25.2771 100.885 25.2435 100.855 25.2098C100.811 25.1496 100.824 25.1467 100.777 25.0837C100.77 25.0751 100.77 25.0762 100.688 24.9831C100.622 24.9089 100.617 24.9213 100.547 24.8431C100.533 24.8268 100.458 24.741 100.37 24.6382C100.34 24.6038 100.311 24.5694 100.282 24.5349C100.27 24.5159 100.202 24.4113 100.111 24.3105C100.044 24.2332 100.037 24.2444 99.972 24.1692C99.9576 24.1531 99.8816 24.0682 99.7955 23.9641C99.7654 23.9302 99.7352 23.8962 99.7051 23.8622C99.6363 23.7794 99.6429 23.781 99.5723 23.7024C99.2243 23.315 99.1528 23.3734 98.9678 23.4879C98.8818 23.7405 98.9177 24.9828 98.9533 25.2433C99.0247 25.7933 99.1383 25.7796 99.6732 25.8932C99.7296 25.9083 99.7862 25.9234 99.8426 25.9385C99.9121 26.1028 99.9099 26.1074 99.8563 26.2773C98.5487 26.2962 96.9101 26.2836 96.8923 26.2734C96.8745 26.2631 96.8792 26.2323 96.8641 26.2184C96.8399 26.1963 96.7894 26.2171 96.7874 26.1028C96.7868 26.0718 96.8014 26.0417 96.8009 26.0106C96.8745 25.9485 96.8689 25.9474 96.9049 25.8579C97.2711 25.8418 97.77 25.972 97.8425 25.2378C97.8528 25.1327 97.8474 25.1324 97.8481 18.609C97.8482 18.2636 97.8253 18.2707 97.7824 17.9257C97.728 17.489 96.971 17.7448 96.8972 17.5458C96.8229 17.3454 96.9078 17.292 97.2774 17.2138C98.334 16.9901 98.3201 16.9475 98.429 16.9175C98.4508 16.9115 98.4498 16.9148 98.7096 16.8814H98.7094Z" fill="#B4B4B4"/>
<path fill-rule="evenodd" clip-rule="evenodd" d="M93.5237 20.4575C93.5568 20.46 93.5844 20.4882 93.6175 20.4906C93.7063 20.4973 94.1704 20.4912 96.0272 20.4936C96.4991 20.7248 95.9525 20.8671 95.9175 20.8817C95.7186 20.902 95.7171 20.8822 95.6411 20.9262C95.2531 21.1508 95.3241 21.2461 95.3241 22.7379C95.3241 25.5521 95.2667 25.6895 95.6367 25.8106C95.8992 25.8966 95.968 25.8838 96.0232 25.8959C96.223 25.9579 96.2079 25.9892 96.2792 26.1871C96.2332 26.2045 96.1872 26.2221 96.1412 26.2395C96.1256 26.2452 96.1299 26.2758 96.1143 26.2814C96.0239 26.3142 93.6451 26.2812 93.4305 26.2782C93.2966 26.0414 93.3892 25.9837 93.4339 25.9204C93.4975 25.8965 93.561 25.8726 93.6246 25.8486L93.7218 25.8401C93.7364 25.8375 93.905 25.8079 93.905 25.8079C93.9926 25.7575 94.0357 25.6707 94.043 25.6559C94.0574 25.6397 94.1298 25.6491 94.167 25.5162C94.2317 25.2845 94.1971 23.5069 94.1964 23.5056C94.1395 23.4058 94.0208 23.4032 94.0033 23.4028C93.8125 23.3987 91.7272 23.3533 91.6177 23.4362C91.5067 23.5202 91.5789 23.5532 91.5787 24.5631C91.5785 25.4961 91.456 25.7189 92.0887 25.8732C92.2645 25.9161 92.4031 25.7509 92.4309 25.9299C92.45 26.0522 92.5246 26.2743 92.2719 26.282C92.2649 26.2822 89.9757 26.2829 89.7759 26.283C89.488 26.2831 89.48 26.1978 89.5229 25.9305C89.548 25.7741 89.6171 25.8577 89.7815 25.8535C89.8115 25.8527 90.0757 25.8461 90.1529 25.7962C90.1666 25.7873 90.164 25.7611 90.1791 25.7546C90.1903 25.7498 90.222 25.7898 90.2608 25.7219C90.3486 25.5682 90.4375 25.5347 90.4266 25.4239C90.4234 25.3919 90.3944 25.366 90.3917 25.334C90.3667 25.035 90.4358 25.0389 90.3943 21.5848C90.3916 21.3523 90.4442 21.1247 90.1794 20.9693C89.836 20.7677 89.524 20.8787 89.5214 20.8764C89.4902 20.8489 89.4986 20.7308 89.4995 20.7181C89.5061 20.6249 89.5194 20.6308 89.5128 20.5389C89.5021 20.3914 89.753 20.491 90.0638 20.4926C90.8386 20.4967 92.0131 20.4923 92.1825 20.4916C92.2964 20.5342 92.2971 20.5293 92.3827 20.6213C92.3369 20.7692 92.3436 20.7725 92.3333 20.7809C92.2584 20.8417 92.2481 20.8211 92.172 20.8829C92.1036 20.909 92.0353 20.935 91.9669 20.9612C91.9608 20.9604 91.9066 20.8922 91.8073 20.9416C91.7929 20.9488 91.7969 20.9521 91.6582 21.0772C91.4733 21.4203 91.6218 21.9372 91.5758 22.6426C91.5595 22.891 91.5853 22.9159 91.7907 22.969C92.5293 22.9688 93.268 22.9685 94.0065 22.9683C94.0753 22.9448 94.2149 22.9944 94.2102 22.7399C94.1988 22.1109 94.211 22.1155 94.2072 21.4871C94.2063 21.3511 94.145 21.2997 94.1428 21.2885C94.1376 21.2617 94.1692 21.237 94.1658 21.21C94.1646 21.2 94.148 21.2095 94.1035 21.1014C94.0953 21.0818 94.0765 21.0362 93.8988 20.9325C93.8716 20.9167 93.8704 20.9266 93.515 20.8442C93.3669 20.7796 93.3649 20.7749 93.313 20.6204C93.4069 20.523 93.4026 20.5235 93.5239 20.4572L93.5237 20.4575Z" fill="#B4B4B4"/>
<path fill-rule="evenodd" clip-rule="evenodd" d="M86.2214 20.3595L86.3147 20.3449C86.4594 20.3401 86.4556 20.3392 86.6007 20.3484C86.9691 20.4224 86.9698 20.4158 87.0751 20.4529C87.2674 20.5424 87.2747 20.5222 87.4446 20.6499C87.543 20.7412 87.6244 20.8201 87.6398 20.8351C87.9067 21.0972 87.8625 21.1277 87.9253 21.4932C88.0692 22.3309 87.8445 25.0243 88.0745 25.4102C88.0822 25.4231 88.2296 25.5779 88.2506 25.5823C88.3818 25.6094 88.5967 25.5535 88.6259 25.5459C88.6485 25.5392 88.6462 25.5384 88.9029 25.4455C88.9236 25.4798 88.8892 25.4836 88.9112 25.52C88.9295 25.5505 88.9468 25.5214 88.9666 25.5515C89.0493 25.6772 88.8982 25.843 88.8808 25.862C88.8356 25.8708 88.8363 25.8555 88.7954 25.8785C88.7705 25.8924 88.7376 25.891 88.7154 25.9089C88.7019 25.9199 88.711 25.9469 88.6975 25.9579C88.6518 25.9695 88.651 25.9562 88.6082 25.9807C88.5681 26.0037 88.5629 25.9805 88.5245 26.0075C88.4973 26.0266 88.5228 26.0407 88.4971 26.0588C88.3547 26.0898 88.3593 26.1014 87.7494 26.37C87.5255 26.3745 87.3646 26.3898 87.1346 26.0349C86.9609 25.7668 86.9501 25.5139 86.586 25.7887C86.5493 25.8143 86.2112 26.0495 86.1097 26.0817C86.0465 26.1141 85.9832 26.1466 85.92 26.179C85.9062 26.1893 85.9019 26.1809 85.7323 26.2839C85.6668 26.3091 85.6012 26.3343 85.5357 26.3595L85.4474 26.3807C85.2544 26.3984 85.259 26.3984 85.066 26.3818L84.9746 26.3631C84.8005 26.3109 84.266 26.2535 83.8481 25.4181C83.7 24.9515 83.6615 24.7956 83.8566 24.2962C84.1569 23.767 84.3704 23.7331 84.5854 23.6052C84.7544 23.504 85.4564 23.2463 85.458 23.2454C85.4939 23.2247 85.5174 23.1828 85.5568 23.1697C85.5807 23.1617 85.6052 23.1924 85.63 23.1883C85.6398 23.1867 85.6277 23.1645 85.7419 23.1339C85.8057 23.1168 85.7881 23.0908 85.852 23.0691C85.8969 23.054 85.8976 23.0713 85.9399 23.0502C86.0007 23.0199 85.9939 23.0145 86.0481 22.9787C86.0946 22.9687 86.0936 22.9822 86.1356 22.9599C86.1612 22.9462 86.1951 22.9491 86.2178 22.9311C86.2314 22.9204 86.2205 22.8926 86.2341 22.8819C86.2563 22.8773 86.2778 22.9033 86.3 22.8987C86.31 22.8966 86.3083 22.8943 86.412 22.8392C86.5687 22.7572 86.572 22.7754 86.7234 22.6845C86.9458 22.5509 86.8893 22.5047 86.9069 22.2583L86.9062 22.0659C86.8613 21.48 86.7447 21.3749 86.5341 21.1675C86.1832 20.9223 86.1599 20.9663 85.7341 20.9799C85.7016 20.9809 85.6015 20.9449 85.2657 21.1174C85.2504 21.1253 84.9821 21.3315 84.8568 21.7729C84.8152 21.9195 84.7694 21.8982 84.7428 22.0498C84.7379 22.0779 84.7506 22.1105 84.7362 22.1351C84.7257 22.1534 84.6891 22.1424 84.6785 22.1606C84.6442 22.1878 84.6099 22.215 84.5756 22.2423C84.5509 22.2526 84.542 22.3227 84.3931 22.3185C84.2458 22.3144 84.2309 22.2493 84.2071 22.2392C83.9727 22.1121 83.9663 22.1103 83.8513 21.8694L83.8514 21.7825C83.8588 21.7656 83.8395 21.5743 84.4216 21.1462C84.4443 21.1307 84.5957 21.0276 84.709 20.958C84.8945 20.8748 85.1919 20.7027 85.5562 20.5555L85.7263 20.4957C85.7891 20.4786 85.781 20.472 85.8404 20.4558C85.8707 20.4475 85.8687 20.4487 86.2216 20.3594L85.5142 23.7515C85.4516 23.7843 85.389 23.8173 85.3264 23.8501C85.1626 23.933 85.1751 23.9436 85.0579 24.079C85.0688 24.1093 85.1083 24.1234 85.1193 24.1537C85.1632 24.2761 85.0851 24.2467 84.9597 24.272C84.8309 24.9049 84.9588 24.8998 85.0262 25.164C85.0539 25.2725 85.0693 25.2619 85.1482 25.3442C85.198 25.3961 85.1977 25.3888 85.2507 25.4366C85.4122 25.4715 85.4125 25.4679 85.4252 25.4743C85.4668 25.4953 85.4855 25.549 85.5271 25.57C85.5404 25.5768 85.5361 25.6019 85.5494 25.6088C85.8739 25.7755 86.4644 25.4192 86.5336 25.3775C86.5292 25.3028 86.4481 25.3532 86.4437 25.2793C86.4403 25.2234 86.4801 25.296 86.5273 25.2714C86.5673 25.2505 86.5876 25.1991 86.6296 25.1824C86.6296 25.1824 86.8148 25.1699 86.8309 25.1688C86.8446 25.1444 86.9032 25.1395 86.9067 24.9489C86.9391 23.2053 86.9411 23.1296 86.7949 23.1179C86.7566 23.1149 86.7552 23.1146 86.21 23.3906C86.1009 23.4458 86.1105 23.458 86.1006 23.4611C86.0797 23.4677 86.0599 23.4362 86.0385 23.4403C86.0233 23.4432 86.0252 23.4709 86.0117 23.4783C85.9859 23.4924 85.9501 23.4837 85.9265 23.5013C85.9095 23.5139 85.9208 23.5501 85.902 23.5598C85.8936 23.5642 85.8452 23.544 85.7298 23.586C85.7135 23.5919 85.6018 23.6326 85.5381 23.6871C85.5207 23.702 85.5316 23.7366 85.5142 23.7515L86.2216 20.3594L86.831 25.1687C86.8149 25.1698 86.6297 25.1823 86.6297 25.1823C86.5877 25.1991 86.5675 25.2504 86.5273 25.2713C86.4801 25.296 86.4404 25.2233 86.4438 25.2793C86.4482 25.3531 86.5292 25.3027 86.5337 25.3774C86.6998 25.2963 86.6908 25.2902 86.831 25.1687L86.2216 20.3594L86.2214 20.3595Z" fill="#B4B4B4"/>
<path fill-rule="evenodd" clip-rule="evenodd" d="M45.1939 20.3489C45.3419 20.3394 45.3363 20.3408 45.4807 20.3428L45.5757 20.3526C45.8107 20.3965 46.3316 20.4447 46.6054 20.8298C46.627 20.9662 46.6268 20.9627 46.6195 21.1023C46.481 21.443 46.4675 21.4441 46.2459 21.5679C46.2314 21.568 46.0639 21.5693 46.0639 21.5693C46.0496 21.5631 46.0529 21.5348 46.0381 21.5302C46.0071 21.5206 46.0138 21.5538 45.9807 21.5435C45.9347 21.4948 45.9446 21.4913 45.8942 21.4518C45.8086 21.3847 45.8096 21.3886 45.7044 21.3526C45.6361 21.237 45.6177 21.2598 45.4909 21.1831C44.9736 20.8704 44.2303 20.9693 44.141 21.0218C44.0463 21.0775 44.0479 21.0793 44.0283 21.0848C43.8784 21.1813 43.8709 21.1655 43.7362 21.2787C43.7033 21.311 43.6705 21.3433 43.6376 21.3756C43.6223 21.3912 43.5423 21.4729 43.4449 21.5692C43.3933 21.6243 43.0739 21.8948 43.015 22.6449C43.0245 22.7905 43.0411 22.7849 43.0336 22.9283C43.0207 23.1736 43.0487 23.1685 43.0422 23.4155C43.0422 23.5615 43.0397 23.5562 43.0581 23.7036C43.0914 23.8323 43.1247 23.9609 43.1581 24.0896C43.1673 24.1044 43.2255 24.1989 43.2512 24.287C43.3458 24.4376 43.3309 24.4444 43.441 24.5814C43.599 24.7639 43.5817 24.7751 43.7541 24.9461L43.8206 24.9825C43.9006 25.056 43.9007 25.0535 44.0064 25.0882C44.0244 25.1223 44.0098 25.123 44.0281 25.1578C44.0594 25.2172 44.1038 25.1859 44.1077 25.1874C44.162 25.233 44.1532 25.2361 44.2103 25.2736C44.2275 25.285 44.3959 25.3958 44.4358 25.3983C44.4579 25.3997 44.4765 25.3755 44.4985 25.3768C44.5137 25.382 44.509 25.4125 44.5241 25.4176C44.9336 25.5568 45.4976 25.4566 45.5809 25.4418C45.6111 25.4364 45.6444 25.4378 45.6711 25.4226C45.6854 25.4145 45.6768 25.3825 45.6927 25.3782C45.7148 25.3723 45.7353 25.4031 45.7578 25.3994C45.7677 25.3977 45.7661 25.3951 45.8705 25.3427C45.908 25.3206 45.9118 25.3355 45.9501 25.3129C45.9592 25.3076 45.9583 25.3077 46.0607 25.2412C46.0961 25.214 46.1315 25.1868 46.167 25.1596C46.2737 25.0768 46.3851 25.0092 46.4048 24.9972L46.441 24.9471C46.7359 24.6861 46.8605 24.9353 46.8092 25.0394C46.7923 25.0738 46.4934 25.511 46.0365 25.8782C45.8644 26.0317 45.4257 26.2303 45.37 26.2556C45.3404 26.2655 45.3401 26.2625 44.9968 26.3684C44.5984 26.4252 44.5996 26.3916 44.3299 26.3731C43.9839 26.3123 43.9831 26.3311 43.6471 26.2244C43.5936 26.2013 43.128 25.9995 43.0025 25.8853C42.6617 25.5843 42.5592 25.4531 42.526 25.4107C42.4343 25.3142 42.3631 25.2213 42.3499 25.2041C42.3407 25.1829 42.2569 24.9892 42.2184 24.9463C42.2061 24.9326 42.1779 24.9437 42.1655 24.93C42.1602 24.9094 42.1873 24.889 42.182 24.8684C42.178 24.853 42.1508 24.855 42.1426 24.8413C42.0784 24.7348 42.0699 24.7453 42.0668 24.7354C42.0558 24.701 42.0946 24.7096 42.0881 24.6721C42.0856 24.6578 42.0541 24.6625 42.0515 24.6483C42.0153 24.4526 42.0181 24.4552 41.9637 24.2656C41.8906 23.9308 41.8389 23.9374 41.8848 23.6024C41.892 23.5493 41.8903 23.553 41.9593 22.9365C42.0125 22.746 42.0138 22.7513 42.0572 22.5586C42.1008 22.4617 42.1034 22.466 42.1444 22.3648C42.1611 22.3236 42.2354 22.1404 42.4229 21.8842C42.4496 21.8477 42.4375 21.8456 42.4527 21.8055C42.5242 21.7233 42.519 21.7245 42.5472 21.6197C42.7874 21.5052 43.0026 21.183 43.2006 21.0419C43.5142 20.8184 43.5233 20.8408 43.8648 20.6607C43.9018 20.6431 44.0558 20.5698 44.3417 20.4752C44.7704 20.3949 44.7642 20.3858 45.1939 20.3486V20.3489Z" fill="#B4B4B4"/>
<path fill-rule="evenodd" clip-rule="evenodd" d="M91.7908 22.9692C91.8324 22.9472 91.8473 22.8895 91.889 22.8674C91.891 22.8663 93.8989 22.8659 93.9075 22.8677C93.9537 22.8775 93.9605 22.9588 94.0066 22.9686C93.268 22.9688 92.5293 22.969 91.7908 22.9692Z" fill="#B4B4B4"/>
<path fill-rule="evenodd" clip-rule="evenodd" d="M78.4405 21.1925C78.7721 21.1046 78.7732 21.1413 79.1124 21.1414C79.189 21.1414 80.0409 21.1414 80.0697 21.1488C80.1079 21.1584 80.1295 21.205 80.1676 21.2147C80.0299 21.2025 79.7029 21.1735 78.4404 21.1926L78.4405 21.1925Z" fill="#B4B4B4"/>
<path fill-rule="evenodd" clip-rule="evenodd" d="M96.0266 20.4953C96.2066 20.4483 96.3027 20.3459 96.3031 20.5315C96.3032 20.5593 96.3037 20.8488 96.271 20.8772C96.2607 20.886 95.9453 20.8837 95.917 20.8834C95.9521 20.8688 96.4986 20.7265 96.0267 20.4953H96.0266Z" fill="#B4B4B4"/>
<path fill-rule="evenodd" clip-rule="evenodd" d="M30.1128 22.1378C30.4968 22.1048 30.4925 22.0975 30.6853 22.0984C30.9518 22.0996 30.9331 22.1624 30.9765 22.1798C30.544 22.2269 30.5473 22.1953 30.1128 22.1378Z" fill="#B4B4B4"/>
<path fill-rule="evenodd" clip-rule="evenodd" d="M20.4425 24.9473C20.6136 25.588 20.3782 25.7869 20.6065 26.0836C20.5361 26.0431 20.5246 26.1034 20.4516 26.0613C20.4466 26.0584 20.443 26.0563 20.4424 25.9891C20.4385 25.4658 20.4509 25.4707 20.4424 24.9473H20.4425Z" fill="#B4B4B4"/>
<path fill-rule="evenodd" clip-rule="evenodd" d="M48.754 17.6401C48.4044 17.6388 47.9581 17.6316 47.8901 17.6501C47.7713 17.6824 47.8095 17.7221 47.7687 17.8464C47.762 17.8091 47.7217 17.7836 47.715 17.7464C47.6924 17.6201 47.6719 17.5642 47.8008 17.5735C48.5894 17.6302 48.5896 17.5941 48.6579 17.5999C48.6925 17.6028 48.7195 17.6372 48.754 17.6401Z" fill="#B4B4B4"/>
<path fill-rule="evenodd" clip-rule="evenodd" d="M57.3977 22.9703C57.4434 22.9607 57.4489 22.8786 57.4946 22.8691C57.5214 22.8635 57.8489 22.8685 57.8796 22.869C58.0235 22.8712 58.0575 22.9454 58.074 22.9526C57.7329 22.9808 57.7376 22.9691 57.3978 22.9703H57.3977Z" fill="#B4B4B4"/>
<path fill-rule="evenodd" clip-rule="evenodd" d="M93.2636 25.93C93.321 25.9268 93.3784 25.9236 93.4358 25.9204C93.391 25.9837 93.2985 26.0415 93.4323 26.2782C93.4185 26.2777 93.2587 26.2713 93.2587 26.2713C93.2374 26.2542 93.2591 26.2489 93.2636 25.93Z" fill="#B4B4B4"/>
<path fill-rule="evenodd" clip-rule="evenodd" d="M30.6056 22.6923C30.7615 22.6966 30.9174 22.7008 31.0733 22.7051C31.0332 22.7169 31.0184 22.7749 30.9783 22.7867C30.9173 22.8046 30.8511 22.7868 30.7876 22.7891C30.6923 22.7926 30.6919 22.846 30.6061 22.8004C30.5452 22.7679 30.6657 22.7242 30.6055 22.6922L30.6056 22.6923Z" fill="#B4B4B4"/>
<path fill-rule="evenodd" clip-rule="evenodd" d="M68.9391 23.0272C68.9152 23.4585 68.909 23.4535 68.9379 23.889C68.9315 23.8517 68.8839 23.8302 68.8775 23.7928C68.8728 23.7657 68.8729 23.1579 68.8778 23.1231C68.8831 23.0855 68.9339 23.0648 68.9392 23.0272L68.9391 23.0272Z" fill="#B4B4B4"/>
<path fill-rule="evenodd" clip-rule="evenodd" d="M93.2582 20.5374L93.3127 20.6214C93.3646 20.7757 93.3666 20.7806 93.5147 20.8451C93.2746 20.9035 93.2627 20.9219 93.2534 20.8936C93.2534 20.8936 93.2578 20.5658 93.2582 20.5373V20.5374Z" fill="#B4B4B4"/>
<path fill-rule="evenodd" clip-rule="evenodd" d="M92.4434 20.5373C92.4458 20.788 92.515 20.7979 92.4468 20.8924C92.4341 20.9102 92.4292 20.8919 92.1736 20.8837C92.2497 20.8218 92.2601 20.8425 92.3348 20.7817C92.3452 20.7733 92.3384 20.7701 92.3843 20.6221L92.4434 20.5373Z" fill="#B4B4B4"/>
<path fill-rule="evenodd" clip-rule="evenodd" d="M64.8643 28.9946C64.8646 29.0226 64.8669 29.3446 64.8669 29.3446C64.847 29.3838 64.8329 29.3585 64.6067 29.2975C64.7384 29.2525 64.7778 29.2929 64.8073 29.1805C64.8159 29.1474 64.7998 29.1109 64.8085 29.0778L64.8643 28.9946Z" fill="#B4B4B4"/>
<path fill-rule="evenodd" clip-rule="evenodd" d="M43.4471 24.5821L43.5223 24.6015C43.5462 24.6238 43.5964 24.5819 43.6202 24.6042C43.6425 24.6251 43.6015 24.6746 43.6232 24.6961C43.6449 24.7175 43.6932 24.6762 43.7148 24.6978C43.7292 24.7122 43.695 24.7172 43.7601 24.9468C43.5878 24.7758 43.6051 24.7645 43.4471 24.5821Z" fill="#B4B4B4"/>
<path fill-rule="evenodd" clip-rule="evenodd" d="M96.0217 25.8968C96.1859 25.8488 96.2635 25.7573 96.2773 25.9271C96.2881 26.0602 96.2775 26.0575 96.2778 26.188C96.2064 25.9901 96.2215 25.9588 96.0217 25.8968Z" fill="#B4B4B4"/>
<path fill-rule="evenodd" clip-rule="evenodd" d="M53.0721 20.3584L52.9811 20.4239C52.9592 20.43 52.8177 20.4692 52.7216 20.5369C52.7192 20.3774 52.7099 20.3752 52.7191 20.3649C52.7379 20.3439 52.7428 20.3704 53.0721 20.3584Z" fill="#B4B4B4"/>
<path fill-rule="evenodd" clip-rule="evenodd" d="M44.3335 26.3729C44.6032 26.3914 44.6019 26.425 45.0004 26.3682C44.9622 26.3783 44.9431 26.4282 44.9048 26.4382C44.8898 26.4422 44.4535 26.4428 44.4309 26.4387C44.3924 26.4317 44.372 26.38 44.3335 26.3729Z" fill="#B4B4B4"/>
<path fill-rule="evenodd" clip-rule="evenodd" d="M99.6768 25.8926C99.702 25.8867 99.7232 25.8569 99.8494 25.8523C100.068 25.8444 100.048 25.9811 100.067 26.004C99.9937 25.982 99.92 25.9599 99.8462 25.9379C99.7898 25.9228 99.7332 25.9077 99.6768 25.8926Z" fill="#B4B4B4"/>
<path fill-rule="evenodd" clip-rule="evenodd" d="M49.9027 17.6381C49.9559 17.6336 49.9411 17.6027 49.9987 17.5979C50.0294 17.5953 50.0274 17.5976 50.383 17.5976C50.5301 17.5976 50.524 17.6174 50.6712 17.6379C50.415 17.638 50.1588 17.6381 49.9026 17.6381L49.9027 17.6381Z" fill="#B4B4B4"/>
<path fill-rule="evenodd" clip-rule="evenodd" d="M45.7068 21.3533C45.8119 21.3893 45.8109 21.3854 45.8966 21.4525C45.9471 21.4921 45.9371 21.4955 45.9831 21.5442C45.9318 21.5167 45.8598 21.5701 45.8085 21.5426C45.7813 21.528 45.8283 21.4722 45.807 21.4497C45.7726 21.4135 45.7558 21.4833 45.7165 21.4456C45.6774 21.408 45.7432 21.3883 45.7068 21.3533Z" fill="#B4B4B4"/>
<path fill-rule="evenodd" clip-rule="evenodd" d="M100.37 20.8103C100.454 20.8659 100.457 20.8512 100.633 20.8998C100.439 20.9882 100.416 21.0442 100.381 20.9706C100.358 20.9223 100.393 20.8587 100.37 20.8103Z" fill="#B4B4B4"/>
<path fill-rule="evenodd" clip-rule="evenodd" d="M63.2689 20.271C63.4245 20.1951 63.4168 20.17 63.5423 20.1723C63.606 20.1735 63.6087 20.178 63.6116 20.1827C63.6559 20.2548 63.6011 20.2681 63.6443 20.3383C63.489 20.2104 63.4714 20.2585 63.2688 20.271L63.2689 20.271Z" fill="#B4B4B4"/>
<path fill-rule="evenodd" clip-rule="evenodd" d="M81.5151 17.6393C81.6523 17.6143 81.6456 17.5919 81.782 17.5907C81.7879 17.5906 81.8524 17.5901 81.8551 17.5954C81.8788 17.6421 81.8401 17.7054 81.8638 17.7522C81.722 17.6209 81.7054 17.6536 81.5151 17.6393Z" fill="#B4B4B4"/>
<path fill-rule="evenodd" clip-rule="evenodd" d="M94.0461 25.6565C94.0388 25.6712 93.9957 25.758 93.908 25.8085C93.908 25.8085 93.7395 25.8381 93.7249 25.8407C93.742 25.8267 93.9397 25.6661 93.9397 25.6661C93.9715 25.6501 94.0142 25.6724 94.046 25.6565H94.0461Z" fill="#B4B4B4"/>
<path fill-rule="evenodd" clip-rule="evenodd" d="M30.1129 17.6374C30.1473 17.6346 30.1745 17.601 30.2089 17.5982C30.4994 17.5744 30.4974 17.5785 30.7853 17.6375C30.5612 17.6375 30.3371 17.6374 30.1129 17.6374Z" fill="#B4B4B4"/>
<path fill-rule="evenodd" clip-rule="evenodd" d="M88.8833 25.861L88.9898 25.8844C88.8932 25.9086 88.7966 25.9328 88.7 25.9569C88.7134 25.946 88.7044 25.9189 88.7179 25.908C88.74 25.89 88.773 25.8915 88.7979 25.8776C88.8388 25.8546 88.8381 25.8698 88.8833 25.861Z" fill="#B4B4B4"/>
<path fill-rule="evenodd" clip-rule="evenodd" d="M92.1817 20.4915C92.2128 20.4877 92.2376 20.4595 92.2687 20.4556C92.3938 20.4402 92.4242 20.4545 92.4363 20.4601C92.4776 20.4795 92.3982 20.5164 92.441 20.5364L92.3818 20.6212C92.2962 20.5291 92.2956 20.5341 92.1817 20.4915Z" fill="#B4B4B4"/>
<path fill-rule="evenodd" clip-rule="evenodd" d="M93.5217 20.4589C93.4004 20.5251 93.4047 20.5245 93.3108 20.622L93.2563 20.5381C93.2794 20.5271 93.2375 20.4724 93.2606 20.4614C93.2795 20.4524 93.2799 20.4612 93.5217 20.4589Z" fill="#B4B4B4"/>
<path fill-rule="evenodd" clip-rule="evenodd" d="M76.1319 17.6358C75.9907 17.6664 75.985 17.6539 75.8714 17.7471C75.8748 17.6371 75.8428 17.5867 75.9545 17.5909C76.0467 17.5943 76.0393 17.6123 76.1319 17.6358Z" fill="#B4B4B4"/>
<path fill-rule="evenodd" clip-rule="evenodd" d="M43.0482 23.416C43.0779 23.4811 43.1076 23.5461 43.1372 23.6111L43.0641 23.7041C43.0457 23.5567 43.0482 23.562 43.0482 23.416Z" fill="#B4B4B4"/>
<path fill-rule="evenodd" clip-rule="evenodd" d="M63.9299 21.386C63.9004 21.5295 63.9093 21.5345 63.8981 21.5406C63.8424 21.5711 63.7638 21.5254 63.708 21.5559C63.7649 21.5033 63.7538 21.4968 63.8163 21.4558C63.8744 21.4176 63.8726 21.4212 63.9299 21.386Z" fill="#B4B4B4"/>
<path fill-rule="evenodd" clip-rule="evenodd" d="M59.274 25.3761L59.355 25.3593C59.2567 25.4638 59.2597 25.4607 59.1545 25.5577L59.1693 25.4752C59.2042 25.4422 59.239 25.4091 59.274 25.3761Z" fill="#B4B4B4"/>
<path fill-rule="evenodd" clip-rule="evenodd" d="M46.4048 24.9974C46.3851 25.0093 46.2737 25.077 46.167 25.1598C46.1845 25.0409 46.1621 25.0003 46.2793 24.9929C46.3433 24.9889 46.3403 24.9951 46.4048 24.9974V24.9974Z" fill="#B4B4B4"/>
<path fill-rule="evenodd" clip-rule="evenodd" d="M36.7256 25.1518C36.8792 25.1755 36.8849 25.1655 36.8911 25.1774C36.9196 25.2319 36.8641 25.3075 36.8926 25.362C36.8 25.2609 36.8032 25.2649 36.7256 25.1518Z" fill="#B4B4B4"/>
<path fill-rule="evenodd" clip-rule="evenodd" d="M15.6465 15.2076C15.7085 15.2087 15.7706 15.2097 15.8326 15.2108C15.8624 15.243 15.8923 15.2753 15.9221 15.3075C15.6429 15.2945 15.6515 15.2101 15.6465 15.2077V15.2076Z" fill="#B4B4B4"/>
<path fill-rule="evenodd" clip-rule="evenodd" d="M61.634 28.9115C61.5841 28.9932 61.5994 28.9982 61.5491 29.0826C61.5176 29.0232 61.4945 29.0485 61.4649 28.9925C61.4618 28.9866 61.4324 28.9309 61.4577 28.9098C61.4685 28.9008 61.4705 28.9099 61.634 28.9115Z" fill="#B4B4B4"/>
<path fill-rule="evenodd" clip-rule="evenodd" d="M53.4849 19.6402C53.5691 19.6395 53.6533 19.6389 53.7375 19.6382C53.6984 19.6508 53.6815 19.7041 53.6424 19.7167C53.494 19.7642 53.5003 19.6477 53.4849 19.6402Z" fill="#B4B4B4"/>
<path fill-rule="evenodd" clip-rule="evenodd" d="M18.8928 19.27C18.944 19.3649 18.9306 19.3682 18.9828 19.4646C18.8527 19.4424 18.7652 19.4775 18.8163 19.3559C18.8312 19.3206 18.8779 19.3053 18.8928 19.27Z" fill="#B4B4B4"/>
<path fill-rule="evenodd" clip-rule="evenodd" d="M93.6243 25.8494C93.5607 25.8733 93.4972 25.8972 93.4336 25.9212C93.3762 25.9244 93.3189 25.9276 93.2615 25.9308C93.2995 25.9201 93.317 25.8687 93.3551 25.8581C93.3758 25.8523 93.375 25.8575 93.6243 25.8495V25.8494Z" fill="#B4B4B4"/>
<path fill-rule="evenodd" clip-rule="evenodd" d="M51.5386 21.4979C51.5644 21.489 51.5862 21.438 51.732 21.4316C51.879 21.4251 51.8718 21.4473 52.0159 21.4635C51.8568 21.4749 51.6977 21.4865 51.5386 21.4979Z" fill="#B4B4B4"/>
<path fill-rule="evenodd" clip-rule="evenodd" d="M64.6953 28.9119C64.7087 28.9124 64.8632 28.9181 64.8632 28.9181C64.8822 28.9353 64.8464 28.9777 64.8654 28.995L64.8095 29.0782C64.799 29.066 64.8099 29.0594 64.6953 28.9119Z" fill="#B4B4B4"/>
<path fill-rule="evenodd" clip-rule="evenodd" d="M85.0587 24.0804C85.0695 24.1107 85.1091 24.1248 85.12 24.1552C85.164 24.2775 85.0859 24.2482 84.9604 24.2734C84.9822 24.2336 84.967 24.2303 84.9883 24.1915C84.9934 24.1823 84.9935 24.1833 85.0587 24.0805V24.0804Z" fill="#B4B4B4"/>
<path fill-rule="evenodd" clip-rule="evenodd" d="M46.0671 25.2427C45.9647 25.3091 45.9656 25.309 45.9565 25.3144C45.9182 25.337 45.9143 25.322 45.877 25.3441C45.9019 25.2168 45.8744 25.143 45.9944 25.1845C46.0237 25.1946 46.0378 25.2325 46.0671 25.2427Z" fill="#B4B4B4"/>
<path fill-rule="evenodd" clip-rule="evenodd" d="M73.2587 25.241C73.1812 25.3537 73.1832 25.3514 73.093 25.4578C73.0938 25.4434 73.1024 25.2775 73.1024 25.2775C73.1112 25.2681 73.1139 25.2748 73.2587 25.241Z" fill="#B4B4B4"/>
<path fill-rule="evenodd" clip-rule="evenodd" d="M76.2283 17.6373C76.2851 17.6319 76.2722 17.6046 76.3244 17.5997C76.5852 17.5746 76.6642 17.6358 76.7088 17.6405C76.5486 17.6394 76.3885 17.6384 76.2283 17.6373Z" fill="#B4B4B4"/>
<path fill-rule="evenodd" clip-rule="evenodd" d="M69.7329 21.2413L69.8137 21.2259C69.7982 21.2409 69.7165 21.3204 69.6235 21.4174L69.6374 21.3366C69.6693 21.3048 69.7011 21.2731 69.7329 21.2413Z" fill="#B4B4B4"/>
<path fill-rule="evenodd" clip-rule="evenodd" d="M67.2622 24.8254L67.2556 24.9123C67.2232 24.9447 67.1908 24.9771 67.1584 25.0095L67.085 25.029C67.1767 24.9292 67.2484 24.8421 67.2622 24.8255V24.8254Z" fill="#B4B4B4"/>
<path fill-rule="evenodd" clip-rule="evenodd" d="M64.2239 26.375C64.4122 26.3925 64.4087 26.3931 64.5996 26.3657C64.5699 26.378 64.5675 26.4404 64.4122 26.4433C64.2557 26.4462 64.2565 26.3869 64.2239 26.3751V26.375Z" fill="#B4B4B4"/>
<path fill-rule="evenodd" clip-rule="evenodd" d="M33.1592 18.255C33.3234 18.2656 33.326 18.2566 33.3363 18.2664C33.3363 18.2664 33.3601 18.4187 33.3622 18.4319C33.2588 18.343 33.2615 18.3454 33.1593 18.2551L33.1592 18.255Z" fill="#B4B4B4"/>
<path fill-rule="evenodd" clip-rule="evenodd" d="M37.1887 20.965C37.1672 20.988 37.2358 21.0649 37.0962 21.0639C37.0416 21.0636 37.0459 21.0606 36.9956 21.0603C37.081 20.9854 37.0809 20.9919 37.1887 20.965Z" fill="#B4B4B4"/>
<path fill-rule="evenodd" clip-rule="evenodd" d="M79.0166 25.7866C79.2785 25.7666 79.2774 25.7597 79.2994 25.765C79.3575 25.7788 79.3383 25.8117 79.3971 25.8257C79.2061 25.8134 79.212 25.8116 79.0167 25.7867L79.0166 25.7866Z" fill="#B4B4B4"/>
<path fill-rule="evenodd" clip-rule="evenodd" d="M87.4468 20.6501C87.4604 20.6517 87.6171 20.6694 87.6171 20.6694C87.6267 20.6788 87.6189 20.6815 87.6421 20.8353C87.6266 20.8203 87.5452 20.7415 87.4468 20.6501Z" fill="#B4B4B4"/>
<path fill-rule="evenodd" clip-rule="evenodd" d="M81.9744 21.8077L82.0548 21.8196C82.0857 21.8509 82.1166 21.8821 82.1475 21.9135L82.1622 21.9944C82.148 21.9787 82.072 21.895 81.9744 21.8077Z" fill="#B4B4B4"/>
<path fill-rule="evenodd" clip-rule="evenodd" d="M69.7202 25.5054C69.735 25.521 69.8128 25.603 69.9106 25.6955L69.8316 25.6791C69.7997 25.6477 69.7679 25.6163 69.736 25.5849L69.7203 25.5054L69.7202 25.5054Z" fill="#B4B4B4"/>
<path fill-rule="evenodd" clip-rule="evenodd" d="M66.7183 20.6272C66.7462 20.6184 66.7604 20.5829 66.7884 20.5741C66.9122 20.5351 66.8783 20.6132 66.899 20.7385C66.8014 20.6644 66.8024 20.6643 66.7936 20.6585C66.759 20.6355 66.7541 20.651 66.7183 20.6272Z" fill="#B4B4B4"/>
<path fill-rule="evenodd" clip-rule="evenodd" d="M70.0225 25.8701L70.1145 25.8712C70.1451 25.9018 70.1757 25.9323 70.2063 25.9629C70.145 25.932 70.0837 25.901 70.0225 25.8701Z" fill="#B4B4B4"/>
<path fill-rule="evenodd" clip-rule="evenodd" d="M47.7659 17.846C47.8368 17.9163 47.8213 17.9264 47.8937 17.999C47.7387 17.999 47.7366 18.0079 47.7266 17.999C47.7266 17.999 47.7626 17.8583 47.7658 17.846H47.7659Z" fill="#B4B4B4"/>
<path fill-rule="evenodd" clip-rule="evenodd" d="M43.6398 21.377L43.621 21.4547C43.5879 21.4867 43.5549 21.5188 43.5218 21.5508L43.447 21.5706C43.5445 21.4743 43.6245 21.3926 43.6398 21.377Z" fill="#B4B4B4"/>
<path fill-rule="evenodd" clip-rule="evenodd" d="M99.6119 22.6831L99.6908 22.665C99.5878 22.7601 99.5917 22.7567 99.4834 22.8442C99.4865 22.8318 99.5213 22.6901 99.5213 22.6901C99.543 22.669 99.5903 22.7042 99.6119 22.6831Z" fill="#B4B4B4"/>
<path fill-rule="evenodd" clip-rule="evenodd" d="M42.5487 21.6208C42.5206 21.7257 42.5257 21.7244 42.4542 21.8066C42.4542 21.7542 42.4516 21.7585 42.4517 21.7103C42.4517 21.5821 42.5237 21.6438 42.5487 21.6208Z" fill="#B4B4B4"/>
<path fill-rule="evenodd" clip-rule="evenodd" d="M65.3723 20.3473C65.4128 20.334 65.3993 20.2847 65.5629 20.285C65.7267 20.2854 65.7134 20.3333 65.7544 20.3465C65.5605 20.3391 65.5635 20.3305 65.3723 20.3473Z" fill="#B4B4B4"/>
<path fill-rule="evenodd" clip-rule="evenodd" d="M16.7827 16.1868C16.8737 16.2866 16.9533 16.37 16.9683 16.3857C16.9555 16.3832 16.8074 16.3541 16.8074 16.3541C16.7864 16.3331 16.8204 16.2865 16.7994 16.2655L16.7827 16.1868Z" fill="#B4B4B4"/>
<path fill-rule="evenodd" clip-rule="evenodd" d="M100.37 24.6355C100.458 24.7383 100.533 24.8241 100.547 24.8404C100.535 24.8377 100.389 24.8065 100.389 24.8065C100.368 24.7847 100.406 24.738 100.385 24.7162L100.37 24.6355Z" fill="#B4B4B4"/>
<path fill-rule="evenodd" clip-rule="evenodd" d="M100.946 25.3094C101.038 25.4119 101.035 25.4092 101.127 25.5136C100.979 25.4836 100.976 25.4906 100.967 25.4813C100.945 25.4591 100.985 25.4103 100.964 25.3881L100.946 25.3094Z" fill="#B4B4B4"/>
<path fill-rule="evenodd" clip-rule="evenodd" d="M99.7976 23.962C99.8837 24.0661 99.9597 24.151 99.9742 24.1671C99.9614 24.1645 99.8142 24.1346 99.8142 24.1346C99.7936 24.1125 99.8327 24.0658 99.812 24.0438L99.7977 23.962H99.7976Z" fill="#B4B4B4"/>
<path fill-rule="evenodd" clip-rule="evenodd" d="M85.0693 26.3815C85.2623 26.3981 85.2577 26.3982 85.4507 26.3803C85.4045 26.3956 85.4214 26.4436 85.2603 26.4431C85.0998 26.4425 85.1161 26.3966 85.0693 26.3815Z" fill="#B4B4B4"/>
<path fill-rule="evenodd" clip-rule="evenodd" d="M15.6502 15.1069L15.7367 15.1161C15.7687 15.1475 15.8007 15.1787 15.8326 15.2101C15.7706 15.209 15.7085 15.208 15.6465 15.2069L15.6502 15.1069Z" fill="#B4B4B4"/>
<path fill-rule="evenodd" clip-rule="evenodd" d="M81.9563 25.4812C81.9346 25.5041 81.9775 25.553 81.9558 25.5759C81.9558 25.5759 81.7876 25.579 81.7729 25.5793C81.8508 25.5073 81.8515 25.5113 81.9563 25.4812Z" fill="#B4B4B4"/>
<path fill-rule="evenodd" clip-rule="evenodd" d="M70.9293 25.4429L71.0019 25.4645C71.0231 25.4851 71.0689 25.4536 71.0901 25.4742C71.0901 25.4742 71.1232 25.6211 71.126 25.6339C71.0246 25.5379 71.0277 25.5408 70.9293 25.4429Z" fill="#B4B4B4"/>
<path fill-rule="evenodd" clip-rule="evenodd" d="M85.5188 23.751C85.4562 23.7838 85.3936 23.8168 85.3311 23.8496C85.4129 23.7787 85.4106 23.7821 85.5188 23.751Z" fill="#B4B4B4"/>
<path fill-rule="evenodd" clip-rule="evenodd" d="M15.5496 15.0117L15.6364 15.0212C15.6686 15.0528 15.7009 15.0844 15.7332 15.1161L15.6467 15.1068C15.6143 15.0751 15.582 15.0434 15.5496 15.0117Z" fill="#B4B4B4"/>
<path fill-rule="evenodd" clip-rule="evenodd" d="M15.457 14.914L15.5415 14.9261C15.5742 14.958 15.607 14.9898 15.6396 15.0217L15.5528 15.0122C15.5208 14.9794 15.489 14.9467 15.457 14.9139V14.914Z" fill="#B4B4B4"/>
<path fill-rule="evenodd" clip-rule="evenodd" d="M40.0781 21.2259L40.158 21.2396C40.1922 21.2704 40.2264 21.3013 40.2606 21.3321L40.1684 21.3271C40.1383 21.2934 40.1082 21.2596 40.0781 21.2259Z" fill="#B4B4B4"/>
<path fill-rule="evenodd" clip-rule="evenodd" d="M15.2274 14.6586C15.2438 14.6728 15.3299 14.7477 15.4336 14.8345L15.3535 14.8184C15.3316 14.7982 15.2862 14.8339 15.2644 14.8137C15.2644 14.8137 15.2303 14.671 15.2273 14.6586H15.2274Z" fill="#B4B4B4"/>
<path fill-rule="evenodd" clip-rule="evenodd" d="M16.6013 15.9823C16.632 16.0163 16.6627 16.0503 16.6933 16.0843L16.7047 16.1686C16.6722 16.1366 16.6398 16.1045 16.6073 16.0725L16.6013 15.9823Z" fill="#B4B4B4"/>
<path fill-rule="evenodd" clip-rule="evenodd" d="M69.9258 25.7723L70.01 25.7828C70.0441 25.8119 70.0782 25.841 70.1122 25.8701L70.0202 25.8689C69.9887 25.8368 69.9573 25.8046 69.9258 25.7723Z" fill="#B4B4B4"/>
<path fill-rule="evenodd" clip-rule="evenodd" d="M69.5383 21.4305L69.5321 21.517C69.5021 21.5489 69.4722 21.5807 69.4421 21.6126C69.4742 21.5518 69.5063 21.4912 69.5383 21.4305Z" fill="#B4B4B4"/>
<path fill-rule="evenodd" clip-rule="evenodd" d="M43.8257 24.983C43.9935 24.9952 43.9964 24.9858 44.0066 24.9961C44.0283 25.0181 43.9898 25.0667 44.0115 25.0887C43.9058 25.054 43.9057 25.0565 43.8257 24.983Z" fill="#B4B4B4"/>
<path fill-rule="evenodd" clip-rule="evenodd" d="M33.355 21.6651C33.33 21.8156 33.3372 21.818 33.328 21.8274C33.328 21.8274 33.1801 21.8536 33.1672 21.8559C33.2646 21.7641 33.3406 21.681 33.355 21.6651Z" fill="#B4B4B4"/>
<path fill-rule="evenodd" clip-rule="evenodd" d="M85.2505 25.4369C85.412 25.4717 85.4122 25.4681 85.4249 25.4746C85.4665 25.4956 85.4853 25.5493 85.5269 25.5703C85.4781 25.561 85.4779 25.5772 85.4353 25.5529C85.3402 25.4984 85.3392 25.5078 85.2505 25.4369Z" fill="#B4B4B4"/>
<path fill-rule="evenodd" clip-rule="evenodd" d="M82.1684 25.2228C82.139 25.37 82.1459 25.3725 82.1367 25.3816C82.1367 25.3816 81.9874 25.4061 81.9744 25.4082C82.0745 25.3193 82.1534 25.2382 82.1684 25.2228Z" fill="#B4B4B4"/>
<path fill-rule="evenodd" clip-rule="evenodd" d="M52.4048 22.1603C52.5127 22.2457 52.511 22.2434 52.5951 22.3547C52.4528 22.3072 52.4493 22.3005 52.4048 22.1603Z" fill="#B4B4B4"/>
<path fill-rule="evenodd" clip-rule="evenodd" d="M48.7705 25.5346C48.6957 25.6247 48.6964 25.6214 48.5928 25.6657C48.6165 25.6425 48.5781 25.5897 48.6019 25.5666C48.6117 25.557 48.6142 25.5642 48.7705 25.5346Z" fill="#B4B4B4"/>
<path fill-rule="evenodd" clip-rule="evenodd" d="M99.7049 23.8609C99.735 23.8948 99.7652 23.9288 99.7953 23.9627L99.8096 24.0445C99.787 24.0208 99.7339 24.0673 99.7113 24.0436C99.7012 24.033 99.7109 24.0303 99.7048 23.8608L99.7049 23.8609Z" fill="#B4B4B4"/>
<path fill-rule="evenodd" clip-rule="evenodd" d="M33.1543 21.9291C33.1328 21.9505 33.1725 21.9986 33.1511 22.02C33.1511 22.02 32.988 22.0299 32.9739 22.0307C33.051 21.9587 33.0516 21.9619 33.1543 21.9291Z" fill="#B4B4B4"/>
<path fill-rule="evenodd" clip-rule="evenodd" d="M69.9283 21.0484L70.0171 21.045C69.9832 21.0735 69.9492 21.102 69.9153 21.1305L69.833 21.1433C69.8648 21.1116 69.8965 21.0801 69.9283 21.0484Z" fill="#B4B4B4"/>
<path fill-rule="evenodd" clip-rule="evenodd" d="M100.285 24.5347C100.314 24.5691 100.344 24.6035 100.373 24.638L100.388 24.7187C100.357 24.6859 100.326 24.6531 100.294 24.6203L100.285 24.5348V24.5347Z" fill="#B4B4B4"/>
<path fill-rule="evenodd" clip-rule="evenodd" d="M65.9849 21.5493L66.0678 21.5632C66.1002 21.5955 66.1327 21.6279 66.1652 21.6603L66.0826 21.6452C66.0501 21.6133 66.0174 21.5813 65.9849 21.5493V21.5493Z" fill="#B4B4B4"/>
<path fill-rule="evenodd" clip-rule="evenodd" d="M81.8738 21.721C82.0377 21.7286 82.0406 21.7191 82.0505 21.7292C82.0717 21.7506 82.0314 21.7979 82.0525 21.8192L81.9721 21.8073C81.9393 21.7785 81.9066 21.7498 81.8738 21.7211V21.721Z" fill="#B4B4B4"/>
<path fill-rule="evenodd" clip-rule="evenodd" d="M15.3604 14.8188L15.4405 14.8348C15.475 14.865 15.5094 14.8952 15.5438 14.9255L15.4593 14.9134C15.4263 14.8818 15.3933 14.8503 15.3604 14.8188Z" fill="#B4B4B4"/>
<path fill-rule="evenodd" clip-rule="evenodd" d="M82.1397 21.9136C82.1616 21.9369 82.2136 21.892 82.2354 21.9153C82.2354 21.9153 82.2445 22.0806 82.2452 22.095C82.215 22.0615 82.1847 22.028 82.1544 21.9945L82.1396 21.9136H82.1397Z" fill="#B4B4B4"/>
<path fill-rule="evenodd" clip-rule="evenodd" d="M69.6396 21.3352L69.6257 21.416C69.5968 21.4495 69.5679 21.483 69.5391 21.5165L69.5452 21.43C69.5767 21.3984 69.6081 21.3668 69.6396 21.3353V21.3352Z" fill="#B4B4B4"/>
<path fill-rule="evenodd" clip-rule="evenodd" d="M66.0815 21.6441L66.1641 21.6591C66.1951 21.6932 66.2261 21.7273 66.2571 21.7613L66.182 21.742C66.1485 21.7093 66.115 21.6768 66.0815 21.6441Z" fill="#B4B4B4"/>
<path fill-rule="evenodd" clip-rule="evenodd" d="M69.8327 21.1434L69.915 21.1307C69.8823 21.1617 69.8497 21.1928 69.8171 21.2238L69.7363 21.2392C69.7684 21.2073 69.8006 21.1753 69.8327 21.1435V21.1434Z" fill="#B4B4B4"/>
<path fill-rule="evenodd" clip-rule="evenodd" d="M100.854 25.2082C100.883 25.2419 100.913 25.2755 100.943 25.3092L100.96 25.3879C100.929 25.3554 100.897 25.3227 100.866 25.2902L100.854 25.2083L100.854 25.2082Z" fill="#B4B4B4"/>
<path fill-rule="evenodd" clip-rule="evenodd" d="M82.3437 25.0153C82.3366 25.1817 82.3458 25.1843 82.336 25.1948C82.3143 25.2181 82.2622 25.1745 82.2405 25.198C82.2789 25.0962 82.2755 25.0975 82.3437 25.0153Z" fill="#B4B4B4"/>
<path fill-rule="evenodd" clip-rule="evenodd" d="M69.6277 25.4012C69.657 25.4351 69.6863 25.4692 69.7156 25.5031L69.7313 25.5825C69.6999 25.5504 69.6686 25.5183 69.6372 25.4862L69.6277 25.4012Z" fill="#B4B4B4"/>
<path fill-rule="evenodd" clip-rule="evenodd" d="M69.833 25.6771L69.912 25.6935C69.9459 25.723 69.9798 25.7525 70.0137 25.782L69.9295 25.7716C69.8973 25.7401 69.8651 25.7086 69.833 25.6771Z" fill="#B4B4B4"/>
<path fill-rule="evenodd" clip-rule="evenodd" d="M65.884 21.4511C65.9885 21.4917 65.9861 21.4887 66.0677 21.5626L65.9849 21.5486C65.9512 21.5161 65.9177 21.4837 65.884 21.4511Z" fill="#B4B4B4"/>
<path fill-rule="evenodd" clip-rule="evenodd" d="M16.6941 16.083C16.7235 16.1173 16.7529 16.1515 16.7823 16.1858L16.799 16.2644C16.7679 16.2321 16.7366 16.1997 16.7054 16.1674L16.6941 16.083Z" fill="#B4B4B4"/>
<path fill-rule="evenodd" clip-rule="evenodd" d="M70.8285 21.1819L70.9092 21.1609C70.8871 21.1827 70.9234 21.232 70.9012 21.2539C70.9012 21.2539 70.749 21.2813 70.7358 21.2837C70.7668 21.2498 70.7977 21.2158 70.8286 21.1819H70.8285Z" fill="#B4B4B4"/>
<path fill-rule="evenodd" clip-rule="evenodd" d="M99.786 22.5673C99.7537 22.5992 99.7213 22.6312 99.689 22.6632L99.6102 22.6813C99.6322 22.6598 99.5931 22.6105 99.6152 22.5891C99.625 22.5795 99.6276 22.5875 99.786 22.5673Z" fill="#B4B4B4"/>
<path fill-rule="evenodd" clip-rule="evenodd" d="M99.9035 22.3934L99.8844 22.4715C99.8528 22.5042 99.8212 22.5369 99.7896 22.5696C99.7913 22.5559 99.8116 22.399 99.8116 22.399C99.8331 22.3771 99.882 22.4154 99.9035 22.3934Z" fill="#B4B4B4"/>
<path fill-rule="evenodd" clip-rule="evenodd" d="M43.7374 21.2794L43.7173 21.3544C43.6848 21.3875 43.6524 21.4207 43.6201 21.4539L43.639 21.3762C43.6718 21.3439 43.7046 21.3116 43.7375 21.2793L43.7374 21.2794Z" fill="#B4B4B4"/>
<path fill-rule="evenodd" clip-rule="evenodd" d="M32.0713 18.5638C32.172 18.6118 32.17 18.6093 32.2476 18.6862L32.1764 18.6626C32.1414 18.6297 32.1064 18.5968 32.0713 18.5638Z" fill="#B4B4B4"/>
<path fill-rule="evenodd" clip-rule="evenodd" d="M100.003 22.2913C99.9576 22.3923 99.9595 22.3892 99.8862 22.4704L99.9054 22.3922C99.9378 22.3586 99.9703 22.3249 100.003 22.2913H100.003Z" fill="#B4B4B4"/>
<path fill-rule="evenodd" clip-rule="evenodd" d="M48.5605 18.1306C48.6484 18.1903 48.6489 18.1868 48.7008 18.2848C48.6777 18.2635 48.6305 18.2939 48.6074 18.2726C48.5985 18.2644 48.6039 18.2621 48.5605 18.1306Z" fill="#B4B4B4"/>
<path fill-rule="evenodd" clip-rule="evenodd" d="M58.0747 22.9535C58.1118 22.9394 58.1341 22.8978 58.1712 22.8837C58.1853 22.8783 58.1847 22.886 58.3568 22.9145L58.0747 22.9535Z" fill="#B4B4B4"/>
<path fill-rule="evenodd" clip-rule="evenodd" d="M86.2384 22.8821C86.2249 22.8928 86.2357 22.9205 86.2222 22.9313C86.1994 22.9493 86.1656 22.9464 86.1399 22.9601C86.0979 22.9824 86.099 22.9689 86.0525 22.9788C86.1145 22.9466 86.1764 22.9143 86.2384 22.8821Z" fill="#B4B4B4"/>
<path fill-rule="evenodd" clip-rule="evenodd" d="M45.2 20.3497C45.2591 20.3307 45.2415 20.3075 45.2971 20.2895C45.3042 20.2872 45.3434 20.2746 45.3908 20.2881C45.4263 20.2982 45.4512 20.3334 45.4868 20.3436C45.3424 20.3416 45.348 20.3402 45.2 20.3497L45.2 20.3497Z" fill="#B4B4B4"/>
<path fill-rule="evenodd" clip-rule="evenodd" d="M86.3184 20.3442C86.3733 20.3276 86.3559 20.3038 86.4143 20.2861C86.4214 20.284 86.4615 20.2718 86.5078 20.2867C86.544 20.2985 86.5682 20.3359 86.6044 20.3476C86.4592 20.3385 86.4631 20.3394 86.3184 20.3441V20.3442Z" fill="#B4B4B4"/>
<path fill-rule="evenodd" clip-rule="evenodd" d="M96.9077 25.8562C96.8717 25.9457 96.8774 25.9468 96.8037 26.0089C96.8062 25.9971 96.8349 25.8602 96.8349 25.8602C96.8528 25.8438 96.8899 25.8727 96.9077 25.8562Z" fill="#B4B4B4"/>
<path fill-rule="evenodd" clip-rule="evenodd" d="M75.8662 25.855C75.8341 25.9455 75.8382 25.9454 75.7729 26.0119C75.8041 25.9596 75.8352 25.9073 75.8662 25.855Z" fill="#B4B4B4"/>
<path fill-rule="evenodd" clip-rule="evenodd" d="M88.9084 25.446C88.6516 25.5389 88.6539 25.5397 88.6313 25.5464C88.668 25.5267 88.6903 25.4858 88.7269 25.4661C88.7398 25.4592 88.7404 25.4646 88.9084 25.4459V25.446Z" fill="#B4B4B4"/>
<path fill-rule="evenodd" clip-rule="evenodd" d="M27.4412 17.6614C27.4747 17.6488 27.4957 17.6123 27.5293 17.5997C27.5293 17.5997 27.6952 17.6337 27.7097 17.6366C27.6202 17.6449 27.5306 17.6531 27.4412 17.6614Z" fill="#B4B4B4"/>
<path fill-rule="evenodd" clip-rule="evenodd" d="M58.4575 25.8287C58.4947 25.8146 58.5192 25.7761 58.5563 25.762C58.5695 25.7571 58.5692 25.763 58.7316 25.7741L58.4575 25.8287Z" fill="#B4B4B4"/>
<path fill-rule="evenodd" clip-rule="evenodd" d="M52.5017 17.64C52.6456 17.6099 52.6448 17.6096 52.7899 17.64H52.5017Z" fill="#B4B4B4"/>
<path fill-rule="evenodd" clip-rule="evenodd" d="M49.1328 17.64C49.278 17.6096 49.2772 17.6099 49.421 17.6401L49.1328 17.64Z" fill="#B4B4B4"/>
<path fill-rule="evenodd" clip-rule="evenodd" d="M67.8993 22.739C67.9222 22.8871 67.9188 22.8859 67.8748 23.027C67.883 22.931 67.8911 22.835 67.8993 22.739Z" fill="#B4B4B4"/>
<path fill-rule="evenodd" clip-rule="evenodd" d="M30.7859 17.6394C30.9303 17.6099 30.9295 17.6099 31.0741 17.6399L30.7859 17.6394Z" fill="#B4B4B4"/>
<path fill-rule="evenodd" clip-rule="evenodd" d="M27.8079 17.6351C27.9514 17.6071 27.9506 17.6069 28.0961 17.6374L27.8079 17.6351Z" fill="#B4B4B4"/>
<path fill-rule="evenodd" clip-rule="evenodd" d="M60.6264 25.3124C60.6228 25.3505 60.7134 25.353 60.7099 25.3912C60.7087 25.4039 60.6987 25.3933 60.5527 25.4201C60.5772 25.3842 60.6018 25.3484 60.6264 25.3124Z" fill="#B4B4B4"/>
<path fill-rule="evenodd" clip-rule="evenodd" d="M102.852 20.7486C102.896 20.7346 102.94 20.7206 102.984 20.7066C102.975 20.7152 103.03 20.7997 102.914 20.774C102.878 20.7662 102.886 20.7562 102.852 20.7486Z" fill="#B4B4B4"/>
<path fill-rule="evenodd" clip-rule="evenodd" d="M96.1428 26.2399C96.1888 26.2224 96.2348 26.2048 96.2808 26.1874C96.2648 26.2032 96.2854 26.2382 96.2693 26.2541C96.2693 26.2541 96.1529 26.241 96.1428 26.2399Z" fill="#B4B4B4"/>
<path fill-rule="evenodd" clip-rule="evenodd" d="M18.152 17.9674C18.1755 18.0158 18.1991 18.0643 18.2226 18.1127C18.195 18.0787 18.1748 18.131 18.1489 18.0992C18.1489 18.0992 18.1518 17.9779 18.152 17.9674Z" fill="#B4B4B4"/>
<path fill-rule="evenodd" clip-rule="evenodd" d="M84.6845 22.1603C84.6817 22.172 84.6489 22.3065 84.6489 22.3065C84.6185 22.313 84.612 22.2355 84.5815 22.2419C84.6159 22.2147 84.6502 22.1876 84.6845 22.1603Z" fill="#B4B4B4"/>
</svg>
