<svg width="100" height="40" viewBox="0 0 100 40" fill="none" xmlns="http://www.w3.org/2000/svg">
<path d="M81.043 15.7736C81.6284 15.8021 81.6155 15.7822 82.1788 15.879C87.2581 16.7526 86.6414 21.8117 86.5811 21.8829C86.3688 22.1279 80.8594 21.9573 78.6006 22.0031C77.9499 22.0173 78.3877 23.7156 79.7618 24.4415C82.0775 25.6646 83.4983 23.636 83.6856 23.3683C83.8036 23.1997 83.89 23.0767 86.2501 23.1603C86.8566 23.1827 85.8057 26.3834 82.0206 26.9269C74.3298 28.0306 72.8295 16.2512 81.043 15.7736ZM27.2247 15.8458C27.3168 15.8457 28.3172 15.845 28.3663 16.0353C28.4144 16.2235 28.3575 18.8749 28.3936 22.1222V22.1232C28.3936 26.7597 28.4477 26.9511 28.1749 26.963C26.2921 27.0452 26.2479 26.9903 26.1876 26.8087C26.1588 26.7221 26.1633 26.7158 26.1631 16.5665C26.1632 15.6419 26.4792 15.8463 27.2247 15.8458ZM70.6016 15.8273C70.9994 15.8501 74.1541 16.031 74.4893 19.0177C74.4927 19.0475 74.5213 19.3051 74.2637 19.3126C72.0465 19.3765 72.0195 19.3194 71.9376 19.1476C71.8299 18.9217 71.6611 18.0205 70.6046 17.8527C69.5027 17.6779 68.3034 19.4659 70.4571 20.1134C71.4856 20.4226 75.1187 20.6927 74.5147 24.3966C73.9624 27.7806 67.1679 28.1094 66.3985 23.9298C66.3923 23.8964 66.3339 23.5785 66.6124 23.5646C68.8102 23.4545 68.8847 23.606 68.9698 23.7794C69.0426 23.9278 69.5812 25.0259 70.6036 25.0079C72.4683 24.9751 72.4406 23.1739 70.7657 22.7638C70.3096 22.6522 65.9363 22.0982 66.7432 18.5206C67.3039 16.0357 70.2268 15.8509 70.6016 15.8273ZM47.7071 15.7736C48.6726 15.8265 50.5643 15.8158 52.2208 17.84C53.1789 19.0109 53.7272 21.9907 52.9083 22.0031C45.3114 22.1175 44.8287 21.732 44.9141 22.3663C45.2148 24.5957 47.4105 24.7457 47.7081 24.7657C49.2113 24.8672 50.1816 23.5451 50.3233 23.3517C50.446 23.1842 50.5586 23.0313 52.9122 23.1691C53.4406 23.2 52.4379 26.3581 48.6827 26.921C41.1155 28.0547 39.2336 16.3827 47.7071 15.7736ZM54.1514 19.42C55.3975 15.2396 60.3337 14.9397 62.1641 17.0236C62.418 17.3126 62.4426 17.0037 62.4444 16.9806C62.5108 16.126 62.4054 15.9923 62.6583 15.9786C64.9291 15.8563 64.9884 16.016 65.0557 16.1964C65.1396 16.432 65.0716 25.4579 65.0655 26.2657C65.063 26.5925 65.1154 26.7066 64.7764 26.7159C62.5246 26.7773 62.4465 26.6606 62.418 26.423C62.3618 25.9513 62.672 25.7288 62.2217 25.5294C58.6444 29.2335 52.4128 25.2546 54.1514 19.42ZM39.7403 12.0558C40.6062 12.0558 41.0256 11.7414 41.0255 12.6085C41.0247 17.7154 41.0272 26.3614 41.0235 26.4279C40.9794 26.8199 40.0319 26.7338 38.7667 26.7189C38.0349 26.7097 38.7134 24.994 38.1524 25.507C37.7865 25.8417 35.2219 28.1877 31.9825 26.0343C29.36 24.2908 27.9651 17.0457 34.378 15.7736C34.7969 15.7807 35.8422 15.5674 37.2764 16.3927C38.0759 16.8528 38.0664 17.1352 38.2755 17.131C38.5656 17.122 38.2262 12.3808 38.459 12.1388C38.5413 12.0559 39.6355 12.0558 39.7403 12.0558ZM13.544 12.4454C13.5473 12.0502 13.7262 12.008 15.8399 12.0558C16.188 12.0637 16.174 12.3329 16.1749 12.4454C16.2084 16.8294 15.9704 17.4455 16.4346 17.0939C17.1995 16.5145 17.0536 16.1816 19.0899 15.7726C19.3043 15.7775 19.519 15.7579 19.7335 15.7628C20.2265 15.7741 23.6296 15.8524 24.5421 19.6183C26.1306 26.1754 19.1735 28.716 16.4913 25.6085C16.0016 25.0412 16.1673 26.306 16.1583 26.4298C16.1195 26.9304 13.6848 26.757 13.584 26.5792C13.4286 26.2953 13.5346 13.5766 13.544 12.4454ZM19.7491 18.2267C15.2057 17.8019 15.3036 23.0333 17.8272 24.2374C21.7946 26.1298 23.9305 19.2467 19.7491 18.2267ZM62.3809 20.2394C61.6664 18.0582 57.9389 16.6688 56.7276 20.4269C56.0017 27.0161 63.8773 24.8087 62.3809 20.2394ZM36.4981 24.3341C39.0467 23.6113 39.6808 17.8114 34.8555 18.2218C31.2873 18.8353 31.8608 25.6486 36.4981 24.3341ZM50.1465 20.2589C50.9019 20.2461 49.9898 17.412 47.0713 18.0323C46.8569 18.0983 45.3474 18.5632 45.0352 19.9152C44.9431 20.3144 45.2291 20.3424 50.1465 20.2589ZM82.0333 18.0656C81.4415 17.9637 81.4351 17.7869 80.3712 18.0587C78.6329 18.5029 78.3786 20.0427 78.3917 20.1046C78.4274 20.2575 79.4777 20.2579 79.5762 20.2579C83.5597 20.2571 83.5654 20.2665 83.6417 20.2491C83.9065 20.1887 83.9617 18.7084 82.0333 18.0656ZM27.6075 12.1261C28.1396 12.1382 28.3867 11.9444 28.3878 12.4943C28.3892 13.2837 28.4547 14.2118 28.2393 14.3195C28.1931 14.3426 26.4181 14.3451 26.3311 14.3185C26.1862 14.2715 26.1257 14.2263 26.1876 12.3605C26.1994 12.0155 27.2489 12.1262 27.6075 12.1261Z" fill="#B4B4B4"/>
</svg>
