<svg width="100" height="40" viewBox="0 0 100 40" fill="none" xmlns="http://www.w3.org/2000/svg">
<path d="M16.8887 12.2598C21.3849 12.26 25.0322 15.9122 25.0322 20.416C25.0321 24.9199 21.3848 28.573 16.8887 28.5732C12.3917 28.5732 8.74528 24.92 8.74512 20.416C8.74512 15.9121 12.3916 12.2598 16.8887 12.2598ZM55.4502 16.6055C57.4457 16.6055 58.9131 18.1735 58.9131 20.3291C58.9131 22.4553 57.4553 24.0625 55.4502 24.0625C54.472 24.0625 53.7089 23.7294 53.1611 23.1318V26.8252H51.6162V16.7822H53.1221V17.6348C53.7088 16.9293 54.4719 16.6055 55.4502 16.6055ZM18.0117 16.8643C19.5224 17.3587 20.5381 18.7718 20.5381 20.3799C20.5381 22.0083 19.5065 23.4266 17.9717 23.9092L18.5342 25.7051C20.8562 24.9752 22.416 22.8349 22.416 20.3799C22.416 17.9555 20.8808 15.8243 18.5957 15.0762L18.0117 16.8643ZM15.1396 15.0898C12.8799 15.8499 11.3613 17.9757 11.3613 20.3799C11.3613 22.7812 12.8769 24.9069 15.1328 25.6689L15.7334 23.8857C14.2423 23.3819 13.2402 21.973 13.2402 20.3799C13.2402 18.7851 14.2435 17.3766 15.7373 16.874L15.1396 15.0898ZM32.5508 16.6055C34.7028 16.6055 36.3467 18.2029 36.3467 20.3291C36.3467 22.4553 34.7028 24.0625 32.5508 24.0625C30.399 24.0623 28.7559 22.4551 28.7559 20.3291C28.7559 18.203 30.399 16.6057 32.5508 16.6055ZM88.0332 16.6055C90.459 16.6056 91.6429 18.4287 91.4863 20.7998L85.9297 20.8096C85.9591 21.4071 86.302 21.9757 86.7812 22.2598C87.182 22.5046 87.6517 22.6318 88.2969 22.6318C88.9717 22.6318 89.6767 22.3966 90.293 21.7695L91.1826 22.8379C90.2728 23.7978 89.1185 24.0625 88.1992 24.0625C87.3288 24.0625 86.6735 23.9247 86.1357 23.6504C84.952 23.0625 84.3555 21.8671 84.3555 20.417C84.3556 18.2125 85.8424 16.6055 88.0332 16.6055ZM42.9785 16.7822V18.2031H40.582V23.876H39.0361V18.2031H36.6396V16.7822H42.9785ZM45.5801 16.7822V19.5352H46.2744L48.6416 16.7822H50.6182L47.5176 20.2217L50.667 23.876H48.6621L46.2852 21.0537H45.5801V23.876H44.0449V16.7822H45.5801ZM61.6914 19.0752H63.4219C64.8892 19.0752 65.8086 20.0255 65.8086 21.4561C65.8085 22.8767 64.782 23.876 63.2852 23.876H60.165V16.7822H61.6914V19.0752ZM68.2158 23.876H66.6797V16.7822H68.2158V23.876ZM75.6104 16.7822V18.2031H73.2139V23.876H71.6689V18.2031H69.2715V16.7822H75.6104ZM78.1826 21.3477L81.8994 16.7822H83.1035V23.876H81.5869V19.2998L77.8799 23.876H76.667V16.7822H78.1826V21.3477ZM32.5508 18.0264C31.2892 18.0266 30.3408 18.9771 30.3408 20.3291C30.3408 21.6615 31.2598 22.6414 32.5508 22.6416C33.8126 22.6416 34.7617 21.6714 34.7617 20.3291C34.7617 19.0063 33.8224 18.0264 32.5508 18.0264ZM55.1855 18.0557C53.9047 18.0559 53.0537 19.0555 53.0537 20.3291C53.0537 21.6027 53.9047 22.6023 55.1855 22.6025C56.4966 22.6025 57.3086 21.6224 57.3086 20.3291C57.3086 19.0651 56.5159 18.0557 55.1855 18.0557ZM61.6807 22.5635H63.2363C63.843 22.5635 64.2831 22.0929 64.2832 21.4561C64.2832 20.8192 63.843 20.3779 63.2363 20.3779H61.6807V22.5635ZM87.9355 17.9385C86.7816 17.9385 86.0873 18.7416 85.9502 19.5254H89.8721C89.7739 18.6633 89.0701 17.9386 87.9355 17.9385Z" fill="#B4B4B4"/>
</svg>
