<svg width="100" height="40" viewBox="0 0 100 40" fill="none" xmlns="http://www.w3.org/2000/svg">
<path d="M35.2244 14.4326C36.4805 14.4326 37.5774 14.9685 38.1931 16.1953C38.6843 17.174 38.7787 18.609 38.7791 20.4902V28.1455C38.7789 28.2815 38.6977 28.3633 38.5906 28.3633L37.617 28.3623C37.4939 28.3623 37.4481 28.3268 37.405 28.2324C37.362 28.137 37.0349 27.3477 37.0349 27.3477C36.4198 28.107 35.5015 28.7098 34.4871 28.71C32.6653 28.71 31.1493 26.7566 31.1492 24.0938C31.1492 21.6222 32.4459 19.3105 34.8513 19.3105C35.2985 19.3106 36.1937 19.4913 36.7107 19.8184C36.7107 19.8184 36.7107 19.6604 36.7107 19.54C36.7107 18.5956 36.6155 17.7781 36.3699 17.1865C36.1063 16.5516 35.6789 16.1299 35.0496 16.1299C34.5738 16.1299 33.9726 16.4211 33.1521 16.9512C33.0772 16.9998 33.0092 17.04 32.9255 17.04C32.8483 17.04 32.7545 17.0083 32.6961 16.8701L32.1296 15.6426C32.0876 15.5655 32.0487 15.4762 32.0486 15.3984C32.0486 15.2676 32.1527 15.2018 32.3171 15.127C33.1582 14.7445 34.4174 14.4327 35.2244 14.4326ZM59.0378 7.98535C59.1716 7.98546 59.2251 8.03998 59.2253 8.17578V28.1455C59.2253 28.2816 59.1451 28.3632 59.0378 28.3633L58.0798 28.3623C57.9569 28.3622 57.9066 28.3252 57.8455 28.2178L57.4822 27.5938C56.8819 28.1336 56.0612 28.71 55.0681 28.71C52.7118 28.7098 50.906 26.3997 50.906 22.0938C50.9061 17.0676 52.7627 14.4541 55.4666 14.4541C55.9368 14.4541 56.5188 14.5852 57.158 14.833V8.17578C57.158 8.06695 57.2384 7.98535 57.3728 7.98535H59.0378ZM65.4148 14.4814C67.548 14.4815 68.996 16.72 68.9959 20.9004V22.0322H65.1209C64.5076 22.0322 63.4871 21.8896 63.4871 21.8896V22.4854C63.4871 24.9371 64.4295 26.7832 66.4832 26.7832C67.3667 26.7831 68.2747 26.5155 68.3357 26.5146C68.4686 26.5146 68.5223 26.568 68.5486 26.6758L68.7595 27.5586C68.7859 27.6666 68.7663 27.7543 68.656 27.8164C67.9361 28.221 66.838 28.6601 65.7351 28.6602C63.2259 28.6602 61.2743 26.3183 61.2742 22.1406C61.2742 18.1493 62.6422 14.4814 65.4148 14.4814ZM32.8289 6C33.0567 6 33.073 6.16051 33.0193 6.31348C32.9751 6.43854 28.9148 17.6054 27.8035 20.7451V28.1455C27.8033 28.2815 27.7223 28.3633 27.615 28.3633H25.8845C25.7505 28.3632 25.6971 28.2814 25.697 28.1455V20.6865C24.3639 17.2951 21.0645 8.42003 21.0164 8.31641C20.9589 8.19348 21.0601 7.99512 21.239 7.99512H23.0662C23.3082 7.9953 23.3716 8.16887 23.408 8.30859C23.4739 8.56301 25.7284 14.931 25.9636 15.667L26.9314 18.3398C27.0437 17.9108 27.5116 16.1238 27.655 15.6172C27.8575 14.9019 30.6401 6.32114 30.6638 6.20117C30.6878 6.0818 30.7912 6.00008 30.9568 6H32.8289ZM46.0867 14.6045C47.8457 14.6045 48.8531 15.488 48.8533 17.1445V28.1445C48.8533 28.2531 48.7998 28.3621 48.6658 28.3623H47.0007C46.8662 28.3623 46.7859 28.2807 46.7859 28.1445V17.7363C46.7859 16.8019 46.0688 16.3457 45.1609 16.3457C44.2103 16.3458 43.4276 16.8464 43.4226 16.8496V28.1455C43.4224 28.2815 43.3412 28.3623 43.2341 28.3623H41.5427C41.4087 28.3623 41.3553 28.2814 41.3552 28.1455V14.9482C41.3555 14.8399 41.436 14.7588 41.5701 14.7588H43.2351C43.3688 14.7589 43.4225 14.8131 43.4226 14.9482V15.5674C43.4399 15.5552 44.7907 14.6046 46.0867 14.6045ZM72.3181 14.7568C72.5299 14.757 72.5923 14.9012 72.6482 15.0469C72.7526 15.3181 73.5794 17.5196 73.738 17.9365C73.9326 18.4463 74.2908 19.4611 74.2976 19.4795L74.3552 19.4805C74.3552 19.4805 74.8486 18.0648 75.032 17.5703C75.3569 16.6992 75.6831 15.8281 76.0105 14.958C76.0531 14.8443 76.1381 14.7569 76.3035 14.7568H77.7878C78.0155 14.7568 78.0312 14.9175 77.9763 15.0703C77.9224 15.2228 75.1639 21.3808 75.1599 21.3896C76.2244 23.866 77.757 27.6321 77.9373 28.0166C78.0126 28.177 77.9387 28.3612 77.7791 28.3613H76.1638C75.9978 28.3611 75.9062 28.2401 75.8406 28.0645C75.7773 27.896 75.1817 26.3012 74.7166 25.0801C74.5336 24.6008 74.0451 23.1418 74.0378 23.1201H73.988C73.9828 23.1371 73.5338 24.5738 73.2498 25.3945C72.8183 26.6404 72.514 27.4467 72.3093 28.0264C72.2366 28.2332 72.1404 28.3613 71.8982 28.3613H70.4744C70.277 28.361 70.1757 28.14 70.2566 27.9902C70.3378 27.841 73.0992 21.209 73.1179 21.1641C73.1179 21.1641 70.5335 15.2104 70.4714 15.0781C70.414 14.9552 70.5146 14.7569 70.6931 14.7568H72.3181ZM35.0134 20.9941C33.8838 20.9941 33.3503 22.4921 33.3503 23.9521C33.3504 24.8752 33.5311 25.7081 33.9187 26.249C34.2372 26.6938 34.6345 26.9344 35.1482 26.9346C35.6622 26.9346 36.2337 26.6903 36.7107 26.2246V21.5996C36.1866 21.178 35.5725 20.9942 35.0134 20.9941ZM55.5466 16.1377C53.9098 16.1377 53.1082 18.8796 53.1082 21.6494C53.1082 24.7993 53.8945 26.9346 55.6746 26.9346C56.2319 26.9345 56.7479 26.7266 57.158 26.501V16.7432C56.6334 16.3219 56.1011 16.1378 55.5466 16.1377ZM65.3347 16.1533C64.4015 16.1533 63.861 17.3131 63.6209 19.6055C63.5682 20.0289 63.553 20.4706 63.5525 20.4863C63.5766 20.483 64.6745 20.3331 65.281 20.333H66.8621C66.8621 20.3181 66.8617 19.8408 66.8357 19.416C66.7022 17.3396 66.1461 16.1533 65.3347 16.1533Z" fill="#B4B4B4"/>
</svg>
