<svg width="90" height="40" viewBox="0 0 90 40" fill="none" xmlns="http://www.w3.org/2000/svg">
<path d="M16.7839 11.9263V29.0712H27.1911V11.9263H16.7839ZM29.3062 9.76559V31.2341H14.6687V9.76559H29.3064H29.3062Z" fill="#B4B4B4"/>
<path d="M37.3879 15.7365H36.6367C35.6711 14.3869 34.7269 13.0416 33.7612 11.5281V15.7365H32.9457V9.86776H33.6754C34.641 11.2088 35.6067 12.5414 36.5509 14.0506H36.5724V9.86776H37.3879M39.684 9.86776L37.6454 15.7365H38.5252L39.0402 14.1336H40.8214L41.2935 15.7365H42.4309L40.5424 9.86776H39.684ZM39.2978 13.4141C39.5338 12.6393 39.7698 11.9283 39.9844 11.0237H40.0059C40.242 11.9283 40.4566 12.6393 40.6712 13.4141M43.375 15.7365V10.6554H41.83V9.86776H45.9502V10.6554H44.3837V15.7365M47.2785 9.8656V15.7343H46.2721V9.8656H47.2785ZM50.4138 15.8366C51.9589 15.8366 52.9246 14.4699 52.9246 12.718C52.9246 11.0726 51.8516 9.76559 50.4137 9.76559C48.9759 9.76559 47.903 11.0726 47.903 12.718C47.903 14.47 48.8687 15.8366 50.4138 15.8366ZM50.4138 14.9978C49.3623 14.9978 48.976 13.8398 48.976 12.718C48.976 11.6367 49.4052 10.6043 50.4138 10.6043C51.4224 10.6043 51.8301 11.6367 51.8301 12.718C51.8301 13.8398 51.4653 14.9978 50.4138 14.9978ZM57.9675 15.7365H57.2379C56.2722 14.3869 55.3066 13.0416 54.3623 11.5281V15.7365H53.5469V9.86776H54.2765C55.2422 11.2088 56.1864 12.5414 57.1306 14.0506H57.1521V9.86776H57.9675M60.2852 9.86776L58.2465 15.7365H59.1264L59.6413 14.1336H61.4225L61.8732 15.7365H63.0105L61.1221 9.86776H60.2852ZM59.8989 13.4141C60.1349 12.6393 60.371 11.9283 60.5856 11.0237H60.607C60.8431 11.9283 61.0363 12.6393 61.2723 13.4141M63.311 9.86776H64.3195V14.9489H66.3153V15.7365H63.311M36.7441 20.6452V23.0677C36.2076 23.2784 35.6496 23.4274 35.0702 23.4274C33.332 23.4274 32.2375 22.0863 32.2375 20.3579C32.2375 18.7592 33.332 17.3586 35.1131 17.3586C35.6496 17.3586 36.2076 17.5587 36.5509 17.8098L36.2076 18.5059C35.9501 18.3377 35.5209 18.1951 35.1346 18.1951C34.0402 18.1951 33.3105 19.0423 33.3105 20.3749C33.3105 21.7671 34.1689 22.5909 35.0273 22.5909C35.3063 22.5909 35.5209 22.5568 35.7355 22.4482V20.6452M40.3707 18.2462H38.6969V19.8576H40.3492V20.6452H38.6969V22.5397H40.6926V23.3273H37.6668V17.4586H40.3706M43.5038 23.4274C45.0489 23.4274 46.0146 22.0608 46.0146 20.3089C46.0146 18.6656 44.9631 17.3586 43.5038 17.3586C42.066 17.3586 40.993 18.6656 40.993 20.3089C40.993 22.0608 41.9587 23.4274 43.5038 23.4274ZM43.5038 22.5908C42.4523 22.5908 42.0875 21.4328 42.0875 20.3089C42.0875 19.2276 42.4952 18.1951 43.5038 18.1951C44.5125 18.1951 44.9416 19.2276 44.9416 20.3089C44.9416 21.4328 44.5553 22.5908 43.5038 22.5908ZM50.8859 20.6452V23.0677C50.3494 23.2784 49.77 23.4274 49.2121 23.4274C47.4738 23.4274 46.3579 22.0863 46.3579 20.3579C46.3579 18.7592 47.4738 17.3586 49.2335 17.3586C49.7914 17.3586 50.328 17.5587 50.6713 17.8098L50.3494 18.5059C50.0704 18.3377 49.6627 18.1951 49.255 18.1951C48.182 18.1951 47.4524 19.0423 47.4524 20.3749C47.4524 21.7671 48.2893 22.5909 49.1691 22.5909C49.4266 22.5909 49.6627 22.5568 49.8773 22.4482V20.6452M55.3924 23.3273L54.2121 20.8964C54.8558 20.5516 55.2422 19.8576 55.2422 19.153C55.2422 18.012 54.534 17.4586 53.3967 17.4586H51.8087V23.3273H52.8387V21.1136H53.2893L54.2336 23.3273H55.3924ZM52.8387 18.2462H53.2893C53.8902 18.2462 54.2121 18.589 54.2121 19.1935C54.2121 19.9811 53.7401 20.3345 53.2464 20.3579C53.1606 20.3685 52.9246 20.3749 52.8387 20.3856M57.474 17.4586L55.4139 23.3273H56.2937L56.8087 21.7266H58.5899L59.0619 23.3273H60.1994L58.3109 17.4586H57.474ZM57.0663 21.005C57.3023 20.2344 57.5383 19.5213 57.7529 18.6166H57.7744C58.0105 19.5213 58.225 20.2344 58.4397 21.005M61.5298 23.3273H60.5212V17.4586H62.0878C63.2251 17.4586 63.9333 18.012 63.9333 19.153C63.9333 20.1408 63.2036 21.1136 61.9804 21.1136H61.5084V20.3856C61.5727 20.3749 61.8517 20.3685 61.959 20.3579C62.4311 20.3345 62.9247 19.9811 62.9247 19.1935C62.9247 18.589 62.5814 18.2462 61.9804 18.2462H61.5298M68.6329 23.3273H67.6243V20.5026H65.5213V23.3273H64.5127V17.4586H65.5213V19.715H67.6243V17.4756H68.6329M70.6029 17.4586V23.3273H69.5965V17.4586H70.6029ZM75.1781 18.5229C74.9206 18.3718 74.5128 18.1951 74.1265 18.1951C73.0965 18.1951 72.3454 19.0423 72.3454 20.3749C72.3454 21.7671 73.1824 22.5909 74.148 22.5909C74.5558 22.5909 74.9205 22.4631 75.1781 22.2971L75.457 23.0251C75.1566 23.2358 74.5987 23.4274 74.1265 23.4274C72.3669 23.4274 71.2724 22.0863 71.2724 20.3579C71.2724 18.7592 72.3669 17.3586 74.1265 17.3586C74.663 17.3586 75.1566 17.5756 75.4999 17.8098" fill="#B4B4B4"/>
<path d="M36.1169 26.2429C35.8811 26.0887 35.4739 25.9082 35.0881 25.9082C34.0593 25.9082 33.3092 26.771 33.3092 28.1292C33.3092 29.5461 34.1236 30.3828 35.1095 30.3828C35.4953 30.3828 35.8596 30.2545 36.1169 30.0828L36.3954 30.8261C36.0954 31.0391 35.5596 31.2346 35.0666 31.2346C33.3306 31.2346 32.2375 29.8699 32.2375 28.1118C32.2375 26.4798 33.3092 25.0543 35.0881 25.0543C35.6024 25.0543 36.0954 25.2758 36.4383 25.5149M40.8534 31.1325H39.8461V28.2575H37.7457V31.1324H36.7384V25.1564H37.7457V27.4533H39.8461V25.1737H40.8534M43.2538 25.1564L41.2177 31.1326H42.0964L42.6108 29.5027H44.3897L44.8398 31.1326H45.9757L44.0896 25.1564L43.2538 25.1564ZM42.8681 28.7681C43.1038 27.9836 43.3395 27.2578 43.5538 26.3364H43.5753C43.811 27.2578 44.0039 27.9836 44.2397 28.7681M50.7551 31.1325H50.0265C49.062 29.7591 48.0975 28.3922 47.1545 26.8471V31.1325H46.3401V25.1564H47.0687C48.0332 26.5233 48.9762 27.8815 49.9193 29.4179H49.9407V25.1564H50.7551M56.1132 31.1325H55.3845C54.4201 29.7591 53.4771 28.3922 52.5126 26.8471V31.1325H51.6982V25.1564H52.4269C53.3913 26.5233 54.3343 27.8815 55.2774 29.4179H55.2988V25.1564H56.1132M59.6067 25.9604H57.9136V27.599H59.5639V28.4008H57.9136V30.3306H59.9068V31.1324H56.9062V25.1564H59.6067M60.464 25.1564H61.4713V30.3306H63.4645V31.1324H60.464" fill="#B4B4B4"/>
</svg>
