<svg width="100" height="40" viewBox="0 0 100 40" fill="none" xmlns="http://www.w3.org/2000/svg">
<path d="M84.1715 15.3905V17.4473C83.0757 17.0438 82.1001 16.8355 81.2449 16.8355C80.737 16.8355 80.3361 16.9266 80.0288 17.1089C79.7214 17.2911 79.5744 17.4994 79.5744 17.7598C79.5744 18.0982 79.9219 18.4107 80.6034 18.684L82.5946 19.6213C84.1982 20.3633 85 21.3527 85 22.6024C85 23.6438 84.5724 24.4639 83.7171 25.0757C82.8752 25.6876 81.7259 26 80.3094 26C79.6546 26 79.0666 25.974 78.5454 25.9089C78.0243 25.8568 77.4229 25.7396 76.7547 25.5834V23.4355C77.9708 23.8391 79.0933 24.0473 80.0956 24.0473C81.285 24.0473 81.8863 23.7089 81.8863 23.032C81.8863 22.6935 81.6458 22.4201 81.1513 22.1988L78.9463 21.2876C78.1312 20.9231 77.5298 20.4935 77.1289 19.9728C76.7414 19.4521 76.5409 18.8533 76.5409 18.1763C76.5409 17.226 76.9552 16.458 77.7704 15.8722C78.5855 15.2994 79.6813 15 81.031 15C81.472 15 81.9799 15.0391 82.5411 15.1041C83.0757 15.1822 83.6236 15.2734 84.1715 15.3905ZM21.6172 15.3905V17.4473C20.5214 17.0438 19.5458 16.8355 18.6906 16.8355C18.1828 16.8355 17.7819 16.9266 17.4745 17.1089C17.1671 17.2911 17.0201 17.4994 17.0201 17.7598C17.0201 18.0982 17.3676 18.4107 18.0491 18.684L20.0403 19.6213C21.6439 20.3633 22.4457 21.3527 22.4457 22.6024C22.4457 23.6438 22.0181 24.4639 21.1762 25.0757C20.3209 25.6876 19.185 26 17.7685 26C17.1137 26 16.5257 25.974 16.0045 25.9089C15.4833 25.8568 14.882 25.7396 14.2138 25.5834V23.4355C15.4433 23.8391 16.5524 24.0473 17.5547 24.0473C18.744 24.0473 19.3454 23.7089 19.3454 23.032C19.3454 22.6935 19.1048 22.4201 18.6104 22.1988L16.4054 21.2876C15.5903 20.9231 14.9755 20.4935 14.588 19.9728C14.1871 19.4521 14 18.8533 14 18.1763C14 17.226 14.4143 16.458 15.2294 15.8722C16.0312 15.2864 17.127 15 18.4768 15C18.9177 15 19.4256 15.0391 19.9868 15.1041C20.5481 15.1822 21.096 15.2734 21.6172 15.3905ZM23.9023 15.1953H27.1363V25.8178H23.9023V15.1953ZM37.5731 15.1953V17.1609H32.7623V19.5172H36.9317V21.2876H32.7623V23.7609H37.6667V25.8178H29.6352V15.1953H37.5731ZM52.6872 15.1953V25.8178H49.667V18.8142L46.5266 25.9219H44.6557L41.649 18.8142V25.8178H39.4574V15.1953H43.4129L46.1124 21.6911L48.932 15.1953H52.6872ZM63.124 15.1953V17.1609H58.3399V19.5172H62.5093V21.2876H58.3399V23.7609H63.2176V25.8178H55.1861V15.1953H63.124ZM74.483 15.1953V25.8178H71.0486L67.1999 19.0095V25.8178H65.0083V15.1953H68.5496L72.3047 21.8864V15.1953H74.483Z" fill="#B4B4B4"/>
</svg>
